<?xml version="1.0" encoding="UTF-8" standalone="no"?>
<!-- Created with Inkscape (http://www.inkscape.org/) -->

<svg
   width="100%"
   height="100%"
   viewBox="0 0 26.458333 26.458333"
   version="1.1"
   id="svg5"
   xmlns="http://www.w3.org/2000/svg"
   xmlns:svg="http://www.w3.org/2000/svg">
  <defs
     id="defs2" />
  <g
     id="layer1">
    <g
       aria-label="ALÉA"
       id="text580"
       style="fill:white;font-weight:900;font-stretch:condensed;font-size:4.23333px;line-height:1.25;font-family:'Barlow Condensed';-inkscape-font-specification:'Barlow Condensed, Heavy Condensed';text-align:end;text-anchor:end;stroke-width:0.264583">
      <path
         id="path593"
         d="m 15.839348,0.70896686 c -0.105966,0 -0.18632,0.10110176 -0.239302,0.33622564 l -0.27811,1.1931816 h -1.506958 c -0.119212,0 -0.19888,0.1979268 -0.19888,0.5002324 V 25.24505 c 0,0.302305 0.07967,0.504334 0.19888,0.504334 h 4.90085 c 0.119211,0 0.198879,-0.202029 0.198879,-0.504334 v -4.399602 c 0,-0.302305 -0.07967,-0.504334 -0.198879,-0.504334 h -2.530462 c -0.05298,0 -0.07923,-0.06657 -0.07923,-0.200919 v -3.259723 c 0,-0.134355 0.02625,-0.200918 0.07923,-0.200918 h 1.311313 c 0.119211,0 0.198879,-0.202029 0.198879,-0.504334 v -4.399602 c 0,-0.302305 -0.07967,-0.504334 -0.198879,-0.504334 h -1.311313 c -0.05298,0 -0.07923,-0.06657 -0.07923,-0.200918 V 7.8475452 c 0,-0.1343554 0.03949,-0.2009181 0.07923,-0.2009181 h 2.530462 c 0.119211,0 0.198879,-0.202029 0.198879,-0.5043345 v -4.403702 c 0,-0.3023055 -0.07967,-0.5002323 -0.198879,-0.5002323 H 17.275162 L 17.574289,1.311695 c 0.03974,-0.1007685 0.05336,-0.1985536 0.05336,-0.2993221 0,-0.16795016 -0.06705,-0.30342429 -0.17301,-0.30342429 z M 2.8199987,2.2383718 c -0.1192115,0 -0.1982477,0.1323241 -0.2247496,0.4346296 L 0.71478398,25.212247 c -0.0265957,0.369487 0.0389549,0.537135 0.17140166,0.537135 H 2.9671481 c 0.1192115,0 0.1985919,-0.135632 0.2118272,-0.471533 l 0.1325719,-2.517572 c 0,-0.100769 0.052409,-0.200911 0.092178,-0.200911 h 1.1657909 c 0.039737,0 0.092178,0.100142 0.092178,0.200911 l 0.1455255,2.517572 c 0.013141,0.335893 0.092616,0.471533 0.2118272,0.471533 h 2.1327021 c 0.1192115,0 0.1859449,-0.133109 0.1859449,-0.401828 V 25.212247 L 5.457228,2.6730014 C 5.4306323,2.3706959 5.3500629,2.2383718 5.2308515,2.2383718 Z m 5.117517,0 C 7.8305571,2.2616199 7.7612736,2.4551986 7.7612736,2.7386041 V 25.245047 c 0,0.302306 0.079668,0.504335 0.1988798,0.504335 h 4.9542086 c 0.119211,0 0.198879,-0.202029 0.198879,-0.504335 v -4.399601 c 0,-0.302306 -0.07967,-0.504335 -0.198879,-0.504335 h -2.58382 c -0.05298,0 -0.07923,-0.06657 -0.07923,-0.200918 V 2.7386001 c 0,-0.3023055 -0.07967,-0.5002323 -0.198879,-0.5002323 H 7.9601518 c -0.00745,0 -0.015519,-0.00155 -0.022622,0 z m 13.2942233,0 c -0.119212,0 -0.198257,0.1323241 -0.22475,0.4346296 L 19.126525,25.212247 c -0.0265,0.369487 0.03894,0.537135 0.171392,0.537135 h 2.079344 c 0.119212,0 0.200188,-0.135632 0.213433,-0.471533 l 0.13097,-2.517572 c 0,-0.100769 0.05404,-0.200911 0.09378,-0.200911 h 1.165791 c 0.03974,0 0.09217,0.100142 0.09217,0.200911 l 0.145522,2.517572 c 0.01324,0.335893 0.0926,0.471533 0.211815,0.471533 h 2.132702 c 0.119212,0 0.185945,-0.133109 0.185945,-0.401828 V 25.212247 L 23.868919,2.6730014 C 23.842417,2.3706959 23.761763,2.2383718 23.642552,2.2383718 Z M 3.9534523,11.349196 c 0.018461,-0.01182 0.039456,0.02856 0.046902,0.123009 l 0.3573371,6.047915 c 0.013141,0.134355 -0.013141,0.200918 -0.066302,0.200918 H 3.6688811 c -0.052972,0 -0.066302,-0.06657 -0.066302,-0.200918 l 0.3169147,-6.047915 c 0.00563,-0.07347 0.019712,-0.113821 0.033949,-0.123009 z m 18.4117397,0 c 0.01846,-0.01182 0.03782,0.02856 0.04527,0.123009 l 0.358954,6.047915 c 0.01323,0.134355 -0.0133,0.200918 -0.06629,0.200918 h -0.62251 c -0.05298,0 -0.0663,-0.06657 -0.06629,-0.200918 l 0.316914,-6.047915 c 0.0058,-0.07347 0.01959,-0.113821 0.03395,-0.123009 z" />
    </g>
  </g>
</svg>
