<?xml version="1.0" encoding="UTF-8" standalone="no"?>
<!-- Created with Inkscape (http://www.inkscape.org/) -->

<svg
   width="100%"
   height="100%"
   viewBox="0 0 26.458333 26.458333"
   version="1.1"
   id="svg5"
   xmlns="http://www.w3.org/2000/svg"
   xmlns:svg="http://www.w3.org/2000/svg">
  <defs
     id="defs2" />
  <g
     id="layer1">
    <g
       aria-label="MATH"
       id="text234"
       style="fill:white;font-weight:900;font-stretch:condensed;font-size:4.23333px;line-height:1.25;font-family:'Barlow Condensed';-inkscape-font-specification:'Barlow Condensed, Heavy Condensed';text-align:end;text-anchor:end;stroke-width:0.264583">
      <path
         d="M 5.0374043,1.1024443 4.1587924,5.6812659 c -0.025843,0.1788632 -0.077525,0.1430855 -0.1033659,0 L 3.150973,1.1024443 C 3.0992899,0.81626484 3.0217653,0.70894861 2.9183992,0.70894861 H 0.90276022 c -0.11628697,0 -0.19381161,0.21463245 -0.19381161,0.53658109 V 25.212799 c 0,0.321949 0.0775246,0.536582 0.19381161,0.536582 H 2.9442407 c 0.1162869,0 0.1938115,-0.214633 0.1938115,-0.536582 V 10.653577 c 0,-0.214632 0.051683,-0.286179 0.090445,-0.07157 l 0.8527704,4.078013 h 0.01292 l 0.1292077,-0.643897 0.7364834,-3.434116 c 0.038762,-0.178863 0.090445,-0.143085 0.090445,0.07157 v 14.559222 c 0,0.321949 0.077525,0.536582 0.1938113,0.536582 h 2.0414818 c 0.1162869,0 0.1938116,-0.214633 0.1938116,-0.536582 V 1.2455297 c 0,-0.32194864 -0.077525,-0.53658109 -0.1938116,-0.53658109 h -2.015639 c -0.103366,0 -0.1808907,0.10731623 -0.2325735,0.39349569 z"
         id="path400" />
      <path
         d="m 12.092136,25.749383 h 2.080243 c 0.116287,0 0.180892,-0.143085 0.180892,-0.429265 V 25.177033 L 12.518522,1.1739878 C 12.49267,0.85203916 12.415154,0.70895368 12.298867,0.70895368 H 9.9472895 c -0.1162869,0 -0.1938116,0.14308548 -0.2196541,0.46503412 L 7.8928871,25.17703 c -0.025852,0.393496 0.038762,0.572351 0.1679691,0.572351 h 2.0285598 c 0.116287,0 0.193812,-0.143086 0.206731,-0.500812 l 0.129207,-2.682904 c 0,-0.107316 0.05168,-0.214633 0.09044,-0.214633 h 1.137028 c 0.03876,0 0.09044,0.107317 0.09044,0.214633 l 0.14213,2.682904 c 0.01291,0.357718 0.09044,0.500812 0.206731,0.500812 z m -1.382521,-8.764151 0.310098,-6.438968 c 0.01291,-0.178864 0.06461,-0.178864 0.07753,0 l 0.34886,6.438968 c 0.01291,0.143086 -0.01291,0.214633 -0.0646,0.214633 h -0.607275 c -0.05168,0 -0.06461,-0.07157 -0.0646,-0.214633 z"
         id="path402" />
      <path
         d="M 19.456971,0.70895115 H 13.86228 c -0.116287,0 -0.193811,0.21463245 -0.193811,0.53658115 v 4.6861379 c 0,0.3219486 0.07752,0.5365811 0.193811,0.5365811 h 1.485888 c 0.05168,0 0.07753,0.071572 0.07753,0.2146324 V 25.212803 c 0,0.321949 0.07752,0.536581 0.193812,0.536581 h 2.04148 c 0.116287,0 0.193811,-0.214632 0.193811,-0.536581 V 6.6828837 c 0,-0.1430854 0.03876,-0.2146324 0.07753,-0.2146324 h 1.52465 c 0.116287,0 0.193812,-0.2146325 0.193812,-0.5365811 V 1.2455323 c 0,-0.3219487 -0.07753,-0.53658115 -0.193812,-0.53658115 z"
         id="path404" />
      <path
         d="M 23.32028,1.2455323 V 10.117 c 0,0.143085 -0.02585,0.214632 -0.07753,0.214632 H 22.6484 c -0.05168,0 -0.07752,-0.107316 -0.07752,-0.214632 V 1.2455323 c 0,-0.3219487 -0.07752,-0.53658115 -0.193811,-0.53658115 h -2.04148 c -0.116287,0 -0.193812,0.21463245 -0.193812,0.53658115 V 25.212802 c 0,0.321949 0.07753,0.536581 0.193812,0.536581 h 2.04148 c 0.116287,0 0.193812,-0.214632 0.193812,-0.536581 v -8.907239 c 0,-0.143086 0.02585,-0.214633 0.07752,-0.214633 h 0.594356 c 0.05168,0 0.07752,0.07157 0.07752,0.214633 v 8.907239 c 0,0.321949 0.07753,0.536581 0.193812,0.536581 h 2.04148 c 0.116287,0 0.193812,-0.214632 0.193812,-0.536581 V 1.2455323 c 0,-0.3219487 -0.07752,-0.53658115 -0.193812,-0.53658115 h -2.041481 c -0.116287,0 -0.193811,0.21463245 -0.193811,0.53658115 z"
         id="path406" />
    </g>
  </g>
</svg>
