<?xml version="1.0" encoding="UTF-8" standalone="no"?>
<!-- Created with Inkscape (http://www.inkscape.org/) -->

<svg
   width="100%"
   height="100%"
   viewBox="0 0 26.458333 26.458333"
   version="1.1"
   id="svg5"
   xmlns="http://www.w3.org/2000/svg"
   xmlns:svg="http://www.w3.org/2000/svg">
  <defs
     id="defs2" />
  <g
     id="layer1">
    <g
       aria-label="COOP"
       id="text487"
       style="fill:white;font-weight:900;font-stretch:condensed;font-size:4.23333px;line-height:1.25;font-family:'Barlow Condensed';-inkscape-font-specification:'Barlow Condensed, Heavy Condensed';text-align:end;text-anchor:end;stroke-width:0.264583"
       transform="translate(21.239072,13.033067)">
      <path
         d="m -17.622456,12.716317 c 1.739289,0 2.907667,-2.9027319 2.907667,-7.4491806 V 5.1272483 c 0,-0.3147544 -0.07966,-0.5595606 -0.199155,-0.5595606 l -2.097769,-0.1748663 c -0.119494,0 -0.199156,0.1748663 -0.199156,0.4896207 v 0.9442623 c 0,0.7693969 -0.159324,1.2590168 -0.411587,1.2590168 -0.252253,0 -0.411587,-0.4896207 -0.411587,-1.2590168 V -5.3995264 c 0,-0.7693968 0.159324,-1.2939892 0.411587,-1.2939892 0.252253,0 0.411587,0.5245907 0.411587,1.2939892 v 0.8743175 c 0,0.3147544 0.07966,0.4896207 0.199156,0.4896207 l 2.097769,-0.1748663 c 0.119493,0 0.199155,-0.2448062 0.199155,-0.5595606 v -0.1748663 c 0,-4.5464471 -1.168378,-7.3792286 -2.907667,-7.3792286 -1.752565,0 -2.907667,2.8327815 -2.907667,7.3792286 V 5.2671413 c 0,4.5464488 1.155102,7.4491807 2.907667,7.4491757 z"
         id="path539" />
      <path
         d="m -11.435372,12.716317 c 1.7791201,0 2.947498,-2.9027319 2.947498,-7.484153 V -4.8399683 c 0,-4.5814203 -1.1683779,-7.4841497 -2.947498,-7.4841497 -1.792396,0 -2.947498,2.9027294 -2.947498,7.4841497 V 5.232164 c 0,4.5814211 1.155102,7.484153 2.947498,7.484153 z m 0,-5.6306008 c -0.292084,0 -0.451418,-0.6295088 -0.451418,-1.5737711 V -5.1197494 c 0,-0.9442623 0.159324,-1.5737711 0.451418,-1.5737711 0.292084,0 0.451418,0.6295088 0.451418,1.5737711 V 5.5119451 c 0,0.9442623 -0.159325,1.5737711 -0.451418,1.5737711 z"
         id="path541" />
      <path
         d="m -5.0093019,12.716317 c 1.7791204,0 2.9474982,-2.9027319 2.9474982,-7.484153 V -4.8399683 c 0,-4.5814203 -1.1683778,-7.4841497 -2.9474982,-7.4841497 -1.7923994,0 -2.9475013,2.9027294 -2.9475013,7.4841497 V 5.232164 c 0,4.5814211 1.1551019,7.484153 2.9475013,7.484153 z m 0,-5.6306008 c -0.2920842,0 -0.4514212,-0.6295088 -0.4514212,-1.5737711 V -5.1197494 c 0,-0.9442623 0.1593244,-1.5737711 0.4514212,-1.5737711 0.2920843,0 0.4514181,0.6295088 0.4514181,1.5737711 V 5.5119451 c 0,0.9442623 -0.1593244,1.5737711 -0.4514181,1.5737711 z"
         id="path543" />
      <path
         d="m 1.7885243,-12.044342 h -2.9873324 c -0.1194933,0 -0.1991555,0.209836 -0.1991555,0.524591 v 23.431697 c 0,0.314754 0.079662,0.524591 0.1991555,0.524591 h 2.09776914 c 0.11949326,0 0.19915546,-0.209837 0.19915546,-0.524591 V 3.5534747 c 0,-0.1398881 0.039831,-0.2098363 0.079662,-0.2098363 h 0.7435149 c 1.5401337,0 2.5890183,-2.97267838 2.5890183,-7.5191263 0,-4.6513619 -1.1019916,-7.8688541 -2.7217874,-7.8688541 z m -0.438142,10.3169427 h -0.172591 c -0.053098,0 -0.079662,-0.069973 -0.079662,-0.2098362 v -4.2666676 c 0,-0.1398881 0.039831,-0.2098363 0.079662,-0.2098363 h 0.172591 c 0.3850318,0 0.6638495,0.7693969 0.6638495,2.3781421 0,1.5737703 -0.2788177,2.3081972 -0.6638495,2.308198 z"
         id="path545" />
    </g>
  </g>
</svg>
