<?xml version="1.0" encoding="UTF-8" standalone="no"?>
<!-- Created with Inkscape (http://www.inkscape.org/) -->

<svg
   xmlns:dc="http://purl.org/dc/elements/1.1/"
   xmlns:cc="http://creativecommons.org/ns#"
   xmlns:rdf="http://www.w3.org/1999/02/22-rdf-syntax-ns#"
   xmlns:svg="http://www.w3.org/2000/svg"
   xmlns="http://www.w3.org/2000/svg"
   xmlns:sodipodi="http://sodipodi.sourceforge.net/DTD/sodipodi-0.dtd"
   xmlns:inkscape="http://www.inkscape.org/namespaces/inkscape"
   width="48.542221mm"
   height="48.542221mm"
   viewBox="0 0 172 172"
   id="svg10291"
   version="1.1"
   inkscape:version="0.91 r13725"
   sodipodi:docname="Latex.svg">
  <defs
     id="defs10293" />
  <sodipodi:namedview
     id="base"
     pagecolor="#ffffff"
     bordercolor="#666666"
     borderopacity="1.0"
     inkscape:pageopacity="0.0"
     inkscape:pageshadow="2"
     inkscape:zoom="0.35"
     inkscape:cx="-209"
     inkscape:cy="-259.71429"
     inkscape:document-units="px"
     inkscape:current-layer="layer1"
     showgrid="false"
     fit-margin-top="0"
     fit-margin-left="0"
     fit-margin-right="0"
     fit-margin-bottom="0"
     inkscape:window-width="1920"
     inkscape:window-height="1017"
     inkscape:window-x="1272"
     inkscape:window-y="-8"
     inkscape:window-maximized="1" />
  <metadata
     id="metadata10296">
    <rdf:RDF>
      <cc:Work
         rdf:about="">
        <dc:format>image/svg+xml</dc:format>
        <dc:type
           rdf:resource="http://purl.org/dc/dcmitype/StillImage" />
        <dc:title></dc:title>
      </cc:Work>
    </rdf:RDF>
  </metadata>
  <g
     inkscape:label="Calque 1"
     inkscape:groupmode="layer"
     id="layer1"
     transform="translate(-62.571429,-100.64792)">
    <rect
       style="color:#000000;display:inline;overflow:visible;visibility:visible;opacity:0.1;fill:none;stroke:#000000;stroke-width:0.81904763;stroke-miterlimit:4;stroke-dasharray:none;marker:none;enable-background:accumulate"
       id="rect5045-5-5-1-8"
       width="171.18095"
       height="171.18095"
       x="62.980953"
       y="101.05744"
       inkscape:export-filename="C:\Users\Seb\Downloads\maths\Mathgraph32\Icones\png\48\Latex.png"
       inkscape:export-xdpi="25.11628"
       inkscape:export-ydpi="25.11628" />
    <g
       transform="translate(-213.42856,-99.714272)"
       id="g3169"
       inkscape:export-filename="C:\Users\Seb\Downloads\maths\Mathgraph32\Icones\png\48\Latex.png"
       inkscape:export-xdpi="25.11628"
       inkscape:export-ydpi="25.11628">
      <g
         transform="translate(-0.31117783,9.8152598)"
         inkscape:export-ydpi="12.55814"
         inkscape:export-xdpi="12.55814"
         inkscape:export-filename="C:\Users\Seb\Downloads\maths\Mathgraph32\Icones\png\24\Latex.png"
         id="text3072"
         style="font-style:normal;font-weight:normal;font-size:64.85325623px;line-height:125%;font-family:Sans;letter-spacing:0px;word-spacing:0px;fill:#000000;fill-opacity:1;stroke:none">
        <path
           inkscape:connector-curvature="0"
           id="path3152"
           d="m 280.53125,259.25 c -2.47698,6.17514 8.01644,2.45402 7.4375,8.28125 -0.34927,13.87534 0.64845,28.0048 -0.40625,41.75 -2.21295,3.10151 -9.10917,-0.38142 -7.03125,5.5625 4.01824,2.31509 12.3197,0.34697 18,1 9.125,0 18.25,0 27.375,0 0.43837,-6.17695 0.8366,-12.35721 1.3125,-18.53125 -4.68258,-1.53802 -5.51332,2.30758 -7.21662,5.586 -1.95372,4.05137 -4.68775,8.32362 -9.87713,7.75775 -3.44389,-0.55752 -9.20561,1.71168 -11.40625,-1.84375 -0.88359,-14.26796 -0.35686,-28.80589 -0.21875,-43.09375 1.33379,-4.3337 9.84028,-0.16652 7.5,-6.46875 -4.01824,-2.31509 -12.3197,-0.34697 -18,-1 -2.05895,0.59846 -7.11903,-1.23543 -7.46875,1 z"
           style="font-variant:normal;font-stretch:normal;font-size:80.21383667px;line-height:125%;font-family:Georgia;-inkscape-font-specification:Georgia;fill:#000000" />
        <path
           d="m 343.50407,291.64392 -18.00373,0 0,-2.16289 c 1.58406,-0.10154 2.89905,-0.30463 3.94498,-0.60926 1.04587,-0.30463 1.56882,-0.68034 1.56886,-1.12714 -4e-5,-0.18277 -0.0203,-0.40617 -0.0609,-0.67019 -0.0407,-0.26401 -0.10158,-0.49756 -0.18278,-0.70065 l -3.59465,-9.68728 -15.14019,0 c -0.56866,1.42163 -1.03068,2.66046 -1.38607,3.7165 -0.35542,1.05607 -0.67528,2.03089 -0.95959,2.92447 -0.26403,0.87328 -0.4468,1.58409 -0.54834,2.13242 -0.10155,0.54834 -0.15232,0.99513 -0.15231,1.34038 -10e-6,0.81235 0.63971,1.44192 1.91917,1.88871 1.27944,0.4468 2.72137,0.71081 4.32577,0.79204 l 0,2.16289 -16.26732,0 0,-2.16289 c 0.52803,-0.0406 1.18806,-0.15739 1.9801,-0.35032 0.79204,-0.19293 1.44192,-0.45187 1.94964,-0.77681 0.81235,-0.54834 1.44192,-1.12206 1.88872,-1.72117 0.44679,-0.5991 0.88343,-1.42669 1.30992,-2.48275 2.17303,-5.42243 4.56946,-11.51505 7.1893,-18.27789 2.61982,-6.76279 4.95532,-12.78433 7.00653,-18.06465 l 2.43705,0 14.40907,37.2869 c 0.30459,0.79205 0.64984,1.43177 1.03575,1.91918 0.38582,0.48741 0.92401,0.96467 1.61454,1.43177 0.46707,0.28432 1.07633,0.52295 1.82779,0.71588 0.75139,0.19294 1.38096,0.29956 1.88872,0.31986 z m -17.42493,-17.66863 -6.54957,-16.75474 -6.42773,16.75474 z"
           style="font-variant:normal;font-stretch:normal;font-size:62.38853836px;line-height:125%;font-family:'Microsoft Yi Baiti';-inkscape-font-specification:'Microsoft Yi Baiti';fill:#000000"
           id="path3154"
           inkscape:connector-curvature="0" />
        <path
           d="m 375.37555,232.37098 -2.70252,0 c -0.23505,-0.93996 -0.65936,-2.05622 -1.27293,-3.34877 -0.61365,-1.29246 -1.29907,-2.51316 -2.05626,-3.66211 -0.78338,-1.20107 -1.63852,-2.25204 -2.56543,-3.15293 -0.92699,-0.90079 -1.8213,-1.41649 -2.68293,-1.5471 -0.80949,-0.10439 -1.82783,-0.18272 -3.05502,-0.235 -1.22727,-0.0522 -2.36311,-0.0783 -3.40752,-0.0783 l -2.27169,0 0,44.45444 c -2e-5,0.86168 0.18275,1.65155 0.54834,2.3696 0.36553,0.71807 1.00525,1.27293 1.91918,1.6646 0.46997,0.18278 1.45567,0.43084 2.9571,0.74417 1.50136,0.31334 2.66984,0.48306 3.50544,0.50917 l 0,2.78085 -26.24183,0 0,-2.78085 c 0.7311,-0.0522 1.84736,-0.15667 3.34877,-0.31334 1.50138,-0.15666 2.5393,-0.3525 3.11377,-0.5875 0.86165,-0.33944 1.49485,-0.82903 1.89959,-1.46876 0.40471,-0.63972 0.60707,-1.49486 0.60709,-2.56543 l 0,-44.80695 -2.27168,0 c -0.80947,5e-5 -1.81475,0.0196 -3.01585,0.0587 -1.20113,0.0392 -2.35003,0.12408 -3.44669,0.25458 -0.86168,0.1045 -1.75599,0.6202 -2.68293,1.5471 -0.92696,0.927 -1.78211,1.97797 -2.56544,3.15293 -0.78334,1.17506 -1.47529,2.42187 -2.07584,3.74044 -0.60057,1.31867 -1.01835,2.40881 -1.25334,3.27044 l -2.74169,0 0,-15.07926 48.41031,0 z"
           style="font-variant:normal;font-stretch:normal;font-size:80.21383667px;line-height:125%;font-family:Georgia;-inkscape-font-specification:Georgia;fill:#000000"
           id="path3156"
           inkscape:connector-curvature="0" />
        <path
           d="m 395.36288,319.43037 -1.05751,16.37177 -46.13862,0 0,-2.78085 c 0.78333,-0.0522 1.82778,-0.16319 3.13335,-0.33292 1.30556,-0.16972 2.15417,-0.34597 2.54585,-0.52875 0.83555,-0.39167 1.41653,-0.90084 1.74293,-1.52751 0.32638,-0.62667 0.48957,-1.42306 0.48958,-2.38918 l 0,-39.95025 c -1e-5,-0.86163 -0.14362,-1.62538 -0.43083,-2.29127 -0.28724,-0.66579 -0.8878,-1.20759 -1.80168,-1.62542 -0.70501,-0.3394 -1.65155,-0.63968 -2.8396,-0.90084 -1.18807,-0.26106 -2.1346,-0.41773 -2.8396,-0.47001 l 0,-2.78085 43.00527,0 0,13.39509 -2.93752,0 c -0.52227,-1.98442 -1.65158,-4.0929 -3.38794,-6.32546 -1.73644,-2.23246 -3.38797,-3.45316 -4.95461,-3.66211 -0.80949,-0.10439 -1.7756,-0.18272 -2.89835,-0.235 -1.12282,-0.0522 -2.40227,-0.0783 -3.83836,-0.0783 l -8.73422,0 0,22.09014 6.2667,0 c 2.01054,3e-5 3.4793,-0.18928 4.40628,-0.56792 0.92692,-0.37859 1.7429,-1.01178 2.44793,-1.8996 0.57442,-0.75719 1.064,-1.769 1.46876,-3.03543 0.40469,-1.26636 0.67233,-2.46095 0.80292,-3.58378 l 2.93752,0 0,21.73764 -2.93752,0 c -0.10448,-1.25332 -0.38517,-2.57847 -0.84209,-3.97544 -0.45698,-1.39693 -0.93351,-2.40874 -1.42959,-3.03544 -0.80948,-1.01831 -1.7299,-1.68415 -2.76127,-1.99751 -1.03142,-0.31331 -2.39573,-0.46998 -4.09294,-0.47 l -6.2667,0 0,16.6851 c -2e-5,1.67113 0.11748,2.98975 0.3525,3.95586 0.23498,0.96612 0.69193,1.69724 1.37084,2.19335 0.67887,0.49612 1.60582,0.81598 2.78085,0.95959 1.17498,0.14361 2.8461,0.21542 5.01337,0.21541 0.86164,10e-6 1.99748,10e-6 3.40752,0 1.40997,10e-6 2.59803,-0.0522 3.56419,-0.15666 0.99219,-0.10444 2.01705,-0.29375 3.0746,-0.56792 1.05747,-0.27417 1.80816,-0.64625 2.2521,-1.11626 1.20107,-1.25334 2.46094,-3.15293 3.7796,-5.69879 1.31858,-2.54583 2.16066,-4.41931 2.52627,-5.62045 z"
           style="font-variant:normal;font-stretch:normal;font-size:80.21383667px;line-height:125%;font-family:Georgia;-inkscape-font-specification:Georgia;fill:#000000"
           id="path3158"
           inkscape:connector-curvature="0" />
        <path
           d="m 443.09433,309.91813 -26.00683,0 0,-2.78085 c 2.14109,-0.0522 3.87096,-0.25459 5.18961,-0.60709 1.31859,-0.3525 1.9779,-0.89431 1.97793,-1.62543 -3e-5,-0.39166 -0.30031,-1.20111 -0.90084,-2.42835 -0.60059,-1.22722 -1.37087,-2.59806 -2.31084,-4.11252 -1.04449,-1.67111 -2.28477,-3.63598 -3.72086,-5.89462 -1.43615,-2.25861 -2.85921,-4.41931 -4.26919,-6.48213 -2.29782,3.02893 -4.90895,6.67798 -7.83339,10.94716 -2.92447,4.2692 -4.3867,6.78241 -4.38669,7.53963 -1e-5,0.86167 0.39818,1.49487 1.19459,1.89959 0.79638,0.40473 2.55236,0.65931 5.26795,0.76376 l 0,2.78085 -20.75846,0 0,-2.78085 c 0.67889,-0.0522 1.54709,-0.15014 2.6046,-0.29376 1.0575,-0.1436 1.9257,-0.38513 2.6046,-0.72458 1.35778,-0.73111 2.44792,-1.52098 3.27043,-2.3696 0.8225,-0.84861 1.65153,-1.84737 2.4871,-2.99627 1.67111,-2.29778 3.81223,-5.16349 6.42338,-8.59714 2.6111,-3.43361 4.92195,-6.56043 6.93254,-9.38047 -1.51448,-2.21943 -3.44671,-5.03292 -5.7967,-8.44047 -2.35003,-3.40749 -4.85671,-7.05653 -7.52005,-10.94715 -1.1228,-1.64497 -2.00405,-2.80692 -2.64377,-3.48586 -0.63973,-0.67884 -1.49487,-1.26635 -2.56543,-1.76251 -0.62668,-0.28717 -1.49488,-0.51565 -2.6046,-0.68542 -1.10973,-0.16967 -1.99099,-0.28065 -2.64377,-0.33292 l 0,-2.78085 25.73267,0 0,2.78085 c -1.51448,0.0523 -3.08769,0.24158 -4.71962,0.56792 -1.63197,0.32644 -2.44795,0.82908 -2.44793,1.50793 -2e-5,0.49616 0.32637,1.36436 0.97917,2.6046 0.65276,1.24033 1.42305,2.56547 2.31085,3.97544 0.91387,1.46227 1.93221,3.08117 3.05502,4.85669 1.12276,1.77561 2.4936,3.82534 4.11253,6.14921 2.95054,-3.99499 5.49638,-7.59834 7.63754,-10.81007 2.14109,-3.21164 3.21165,-5.30054 3.21169,-6.2667 -4e-5,-0.83551 -0.48963,-1.44913 -1.46876,-1.84085 -0.97921,-0.39162 -2.63075,-0.63967 -4.95461,-0.74417 l 0,-2.78085 20.71929,0 0,2.78085 c -0.65283,0.0262 -1.50798,0.12408 -2.56543,0.29375 -1.05756,0.16978 -1.93881,0.41131 -2.64377,0.72459 -1.35783,0.65283 -2.36964,1.35784 -3.03543,2.11501 -0.66589,0.75728 -1.5602,1.85395 -2.68293,3.29002 -2.08895,2.68951 -4.01465,5.21577 -5.77712,7.5788 -1.76255,2.36311 -3.88409,5.24187 -6.36463,8.6363 2.08887,2.97672 4.4193,6.35812 6.9913,10.14423 2.57192,3.78616 5.0329,7.40256 7.38296,10.84924 0.8094,1.17501 1.73635,2.29127 2.78085,3.34877 1.0444,1.05751 1.89302,1.7821 2.54585,2.17376 0.62662,0.36557 1.46871,0.59404 2.52627,0.68543 1.05745,0.0914 1.95176,0.15014 2.68293,0.17625 z"
           style="font-variant:normal;font-stretch:normal;font-size:80.21383667px;line-height:125%;font-family:Georgia;-inkscape-font-specification:Georgia;fill:#000000"
           id="path3160"
           inkscape:connector-curvature="0" />
      </g>
    </g>
  </g>
</svg>
