<?xml version="1.0" encoding="UTF-8" standalone="no"?>
<!-- Created with Inkscape (http://www.inkscape.org/) -->

<svg
   width="48.542221mm"
   height="48.542221mm"
   viewBox="0 0 172 172"
   id="svg10291"
   version="1.1"
   inkscape:version="1.2-alpha1 (b6a15bb, 2022-02-23)"
   sodipodi:docname="latexSvg.svg"
   xmlns:inkscape="http://www.inkscape.org/namespaces/inkscape"
   xmlns:sodipodi="http://sodipodi.sourceforge.net/DTD/sodipodi-0.dtd"
   xmlns="http://www.w3.org/2000/svg"
   xmlns:svg="http://www.w3.org/2000/svg"
   xmlns:rdf="http://www.w3.org/1999/02/22-rdf-syntax-ns#"
   xmlns:cc="http://creativecommons.org/ns#"
   xmlns:dc="http://purl.org/dc/elements/1.1/">
  <defs
     id="defs10293" />
  <sodipodi:namedview
     id="base"
     pagecolor="#ffffff"
     bordercolor="#666666"
     borderopacity="1.0"
     inkscape:pageopacity="0.0"
     inkscape:pageshadow="2"
     inkscape:zoom="1.8036584"
     inkscape:cx="127.5186"
     inkscape:cy="75.956733"
     inkscape:document-units="px"
     inkscape:current-layer="layer1"
     showgrid="false"
     fit-margin-top="0"
     fit-margin-left="0"
     fit-margin-right="0"
     fit-margin-bottom="0"
     inkscape:window-width="1440"
     inkscape:window-height="900"
     inkscape:window-x="0"
     inkscape:window-y="0"
     inkscape:window-maximized="0"
     inkscape:pagecheckerboard="0"
     inkscape:deskcolor="#d1d1d1" />
  <metadata
     id="metadata10296">
    <rdf:RDF>
      <cc:Work
         rdf:about="">
        <dc:format>image/svg+xml</dc:format>
        <dc:type
           rdf:resource="http://purl.org/dc/dcmitype/StillImage" />
        <dc:title />
      </cc:Work>
    </rdf:RDF>
  </metadata>
  <g
     inkscape:label="Calque 1"
     inkscape:groupmode="layer"
     id="layer1"
     transform="translate(-62.571429,-100.64792)">
    <rect
       style="color:#000000;display:inline;overflow:visible;visibility:visible;opacity:0.1;fill:none;stroke:#000000;stroke-width:0.81904763;stroke-miterlimit:4;stroke-dasharray:none;marker:none;enable-background:accumulate"
       id="rect5045-5-5-1-8"
       width="171.18095"
       height="171.18095"
       x="62.980953"
       y="101.05744"
       inkscape:export-filename="C:\Users\Seb\Downloads\maths\Mathgraph32\Icones\png\48\Latex.png"
       inkscape:export-xdpi="25.11628"
       inkscape:export-ydpi="25.11628" />
    <g
       transform="matrix(0.52471646,0,0,0.5833379,-35.726961,16.743222)"
       id="g3169"
       inkscape:export-filename="C:\Users\Seb\Downloads\maths\Mathgraph32\Icones\png\48\Latex.png"
       inkscape:export-xdpi="25.11628"
       inkscape:export-ydpi="25.11628">
      <g
         transform="translate(-0.31117783,9.8152598)"
         inkscape:export-ydpi="12.55814"
         inkscape:export-xdpi="12.55814"
         inkscape:export-filename="C:\Users\Seb\Downloads\maths\Mathgraph32\Icones\png\24\Latex.png"
         id="text3072"
         style="font-style:normal;font-weight:normal;font-size:64.8533px;line-height:125%;font-family:Sans;letter-spacing:0px;word-spacing:0px;fill:#000000;fill-opacity:1;stroke:none">
        <path
           inkscape:connector-curvature="0"
           id="path3152"
           d="m 280.53125,259.25 c -2.47698,6.17514 8.01644,2.45402 7.4375,8.28125 -0.34927,13.87534 0.64845,28.0048 -0.40625,41.75 -2.21295,3.10151 -9.10917,-0.38142 -7.03125,5.5625 4.01824,2.31509 12.3197,0.34697 18,1 9.125,0 18.25,0 27.375,0 0.43837,-6.17695 0.8366,-12.35721 1.3125,-18.53125 -4.68258,-1.53802 -5.51332,2.30758 -7.21662,5.586 -1.95372,4.05137 -4.68775,8.32362 -9.87713,7.75775 -3.44389,-0.55752 -9.20561,1.71168 -11.40625,-1.84375 -0.88359,-14.26796 -0.35686,-28.80589 -0.21875,-43.09375 1.33379,-4.3337 9.84028,-0.16652 7.5,-6.46875 -4.01824,-2.31509 -12.3197,-0.34697 -18,-1 -2.05895,0.59846 -7.11903,-1.23543 -7.46875,1 z"
           style="font-variant:normal;font-stretch:normal;font-size:80.2138px;line-height:125%;font-family:Georgia;-inkscape-font-specification:Georgia;fill:#000000" />
        <path
           d="m 343.50407,291.64392 h -18.00373 v -2.16289 c 1.58406,-0.10154 2.89905,-0.30463 3.94498,-0.60926 1.04587,-0.30463 1.56882,-0.68034 1.56886,-1.12714 -4e-5,-0.18277 -0.0203,-0.40617 -0.0609,-0.67019 -0.0407,-0.26401 -0.10158,-0.49756 -0.18278,-0.70065 l -3.59465,-9.68728 h -15.14019 c -0.56866,1.42163 -1.03068,2.66046 -1.38607,3.7165 -0.35542,1.05607 -0.67528,2.03089 -0.95959,2.92447 -0.26403,0.87328 -0.4468,1.58409 -0.54834,2.13242 -0.10155,0.54834 -0.15232,0.99513 -0.15231,1.34038 -10e-6,0.81235 0.63971,1.44192 1.91917,1.88871 1.27944,0.4468 2.72137,0.71081 4.32577,0.79204 v 2.16289 h -16.26732 v -2.16289 c 0.52803,-0.0406 1.18806,-0.15739 1.9801,-0.35032 0.79204,-0.19293 1.44192,-0.45187 1.94964,-0.77681 0.81235,-0.54834 1.44192,-1.12206 1.88872,-1.72117 0.44679,-0.5991 0.88343,-1.42669 1.30992,-2.48275 2.17303,-5.42243 4.56946,-11.51505 7.1893,-18.27789 2.61982,-6.76279 4.95532,-12.78433 7.00653,-18.06465 h 2.43705 l 14.40907,37.2869 c 0.30459,0.79205 0.64984,1.43177 1.03575,1.91918 0.38582,0.48741 0.92401,0.96467 1.61454,1.43177 0.46707,0.28432 1.07633,0.52295 1.82779,0.71588 0.75139,0.19294 1.38096,0.29956 1.88872,0.31986 z m -17.42493,-17.66863 -6.54957,-16.75474 -6.42773,16.75474 z"
           style="font-variant:normal;font-stretch:normal;font-size:62.3885px;line-height:125%;font-family:'Microsoft Yi Baiti';-inkscape-font-specification:'Microsoft Yi Baiti';fill:#000000"
           id="path3154"
           inkscape:connector-curvature="0" />
        <path
           d="m 375.37555,232.37098 h -2.70252 c -0.23505,-0.93996 -0.65936,-2.05622 -1.27293,-3.34877 -0.61365,-1.29246 -1.29907,-2.51316 -2.05626,-3.66211 -0.78338,-1.20107 -1.63852,-2.25204 -2.56543,-3.15293 -0.92699,-0.90079 -1.8213,-1.41649 -2.68293,-1.5471 -0.80949,-0.10439 -1.82783,-0.18272 -3.05502,-0.235 -1.22727,-0.0522 -2.36311,-0.0783 -3.40752,-0.0783 h -2.27169 v 44.45444 c -2e-5,0.86168 0.18275,1.65155 0.54834,2.3696 0.36553,0.71807 1.00525,1.27293 1.91918,1.6646 0.46997,0.18278 1.45567,0.43084 2.9571,0.74417 1.50136,0.31334 2.66984,0.48306 3.50544,0.50917 v 2.78085 h -26.24183 v -2.78085 c 0.7311,-0.0522 1.84736,-0.15667 3.34877,-0.31334 1.50138,-0.15666 2.5393,-0.3525 3.11377,-0.5875 0.86165,-0.33944 1.49485,-0.82903 1.89959,-1.46876 0.40471,-0.63972 0.60707,-1.49486 0.60709,-2.56543 v -44.80695 h -2.27168 c -0.80947,5e-5 -1.81475,0.0196 -3.01585,0.0587 -1.20113,0.0392 -2.35003,0.12408 -3.44669,0.25458 -0.86168,0.1045 -1.75599,0.6202 -2.68293,1.5471 -0.92696,0.927 -1.78211,1.97797 -2.56544,3.15293 -0.78334,1.17506 -1.47529,2.42187 -2.07584,3.74044 -0.60057,1.31867 -1.01835,2.40881 -1.25334,3.27044 h -2.74169 V 217.2917 h 48.41031 z"
           style="font-variant:normal;font-stretch:normal;font-size:80.2138px;line-height:125%;font-family:Georgia;-inkscape-font-specification:Georgia;fill:#000000"
           id="path3156"
           inkscape:connector-curvature="0" />
        <path
           d="m 395.36288,319.43037 -1.05751,16.37177 h -46.13862 v -2.78085 c 0.78333,-0.0522 1.82778,-0.16319 3.13335,-0.33292 1.30556,-0.16972 2.15417,-0.34597 2.54585,-0.52875 0.83555,-0.39167 1.41653,-0.90084 1.74293,-1.52751 0.32638,-0.62667 0.48957,-1.42306 0.48958,-2.38918 v -39.95025 c -1e-5,-0.86163 -0.14362,-1.62538 -0.43083,-2.29127 -0.28724,-0.66579 -0.8878,-1.20759 -1.80168,-1.62542 -0.70501,-0.3394 -1.65155,-0.63968 -2.8396,-0.90084 -1.18807,-0.26106 -2.1346,-0.41773 -2.8396,-0.47001 v -2.78085 h 43.00527 v 13.39509 h -2.93752 c -0.52227,-1.98442 -1.65158,-4.0929 -3.38794,-6.32546 -1.73644,-2.23246 -3.38797,-3.45316 -4.95461,-3.66211 -0.80949,-0.10439 -1.7756,-0.18272 -2.89835,-0.235 -1.12282,-0.0522 -2.40227,-0.0783 -3.83836,-0.0783 h -8.73422 v 22.09014 h 6.2667 c 2.01054,3e-5 3.4793,-0.18928 4.40628,-0.56792 0.92692,-0.37859 1.7429,-1.01178 2.44793,-1.8996 0.57442,-0.75719 1.064,-1.769 1.46876,-3.03543 0.40469,-1.26636 0.67233,-2.46095 0.80292,-3.58378 h 2.93752 v 21.73764 h -2.93752 c -0.10448,-1.25332 -0.38517,-2.57847 -0.84209,-3.97544 -0.45698,-1.39693 -0.93351,-2.40874 -1.42959,-3.03544 -0.80948,-1.01831 -1.7299,-1.68415 -2.76127,-1.99751 -1.03142,-0.31331 -2.39573,-0.46998 -4.09294,-0.47 h -6.2667 v 16.6851 c -2e-5,1.67113 0.11748,2.98975 0.3525,3.95586 0.23498,0.96612 0.69193,1.69724 1.37084,2.19335 0.67887,0.49612 1.60582,0.81598 2.78085,0.95959 1.17498,0.14361 2.8461,0.21542 5.01337,0.21541 0.86164,10e-6 1.99748,10e-6 3.40752,0 1.40997,10e-6 2.59803,-0.0522 3.56419,-0.15666 0.99219,-0.10444 2.01705,-0.29375 3.0746,-0.56792 1.05747,-0.27417 1.80816,-0.64625 2.2521,-1.11626 1.20107,-1.25334 2.46094,-3.15293 3.7796,-5.69879 1.31858,-2.54583 2.16066,-4.41931 2.52627,-5.62045 z"
           style="font-variant:normal;font-stretch:normal;font-size:80.2138px;line-height:125%;font-family:Georgia;-inkscape-font-specification:Georgia;fill:#000000"
           id="path3158"
           inkscape:connector-curvature="0" />
        <path
           d="M 443.09433,309.91813 H 417.0875 v -2.78085 c 2.14109,-0.0522 3.87096,-0.25459 5.18961,-0.60709 1.31859,-0.3525 1.9779,-0.89431 1.97793,-1.62543 -3e-5,-0.39166 -0.30031,-1.20111 -0.90084,-2.42835 -0.60059,-1.22722 -1.37087,-2.59806 -2.31084,-4.11252 -1.04449,-1.67111 -2.28477,-3.63598 -3.72086,-5.89462 -1.43615,-2.25861 -2.85921,-4.41931 -4.26919,-6.48213 -2.29782,3.02893 -4.90895,6.67798 -7.83339,10.94716 -2.92447,4.2692 -4.3867,6.78241 -4.38669,7.53963 -1e-5,0.86167 0.39818,1.49487 1.19459,1.89959 0.79638,0.40473 2.55236,0.65931 5.26795,0.76376 v 2.78085 h -20.75846 v -2.78085 c 0.67889,-0.0522 1.54709,-0.15014 2.6046,-0.29376 1.0575,-0.1436 1.9257,-0.38513 2.6046,-0.72458 1.35778,-0.73111 2.44792,-1.52098 3.27043,-2.3696 0.8225,-0.84861 1.65153,-1.84737 2.4871,-2.99627 1.67111,-2.29778 3.81223,-5.16349 6.42338,-8.59714 2.6111,-3.43361 4.92195,-6.56043 6.93254,-9.38047 -1.51448,-2.21943 -3.44671,-5.03292 -5.7967,-8.44047 -2.35003,-3.40749 -4.85671,-7.05653 -7.52005,-10.94715 -1.1228,-1.64497 -2.00405,-2.80692 -2.64377,-3.48586 -0.63973,-0.67884 -1.49487,-1.26635 -2.56543,-1.76251 -0.62668,-0.28717 -1.49488,-0.51565 -2.6046,-0.68542 -1.10973,-0.16967 -1.99099,-0.28065 -2.64377,-0.33292 v -2.78085 h 25.73267 v 2.78085 c -1.51448,0.0523 -3.08769,0.24158 -4.71962,0.56792 -1.63197,0.32644 -2.44795,0.82908 -2.44793,1.50793 -2e-5,0.49616 0.32637,1.36436 0.97917,2.6046 0.65276,1.24033 1.42305,2.56547 2.31085,3.97544 0.91387,1.46227 1.93221,3.08117 3.05502,4.85669 1.12276,1.77561 2.4936,3.82534 4.11253,6.14921 2.95054,-3.99499 5.49638,-7.59834 7.63754,-10.81007 2.14109,-3.21164 3.21165,-5.30054 3.21169,-6.2667 -4e-5,-0.83551 -0.48963,-1.44913 -1.46876,-1.84085 -0.97921,-0.39162 -2.63075,-0.63967 -4.95461,-0.74417 v -2.78085 h 20.71929 v 2.78085 c -0.65283,0.0262 -1.50798,0.12408 -2.56543,0.29375 -1.05756,0.16978 -1.93881,0.41131 -2.64377,0.72459 -1.35783,0.65283 -2.36964,1.35784 -3.03543,2.11501 -0.66589,0.75728 -1.5602,1.85395 -2.68293,3.29002 -2.08895,2.68951 -4.01465,5.21577 -5.77712,7.5788 -1.76255,2.36311 -3.88409,5.24187 -6.36463,8.6363 2.08887,2.97672 4.4193,6.35812 6.9913,10.14423 2.57192,3.78616 5.0329,7.40256 7.38296,10.84924 0.8094,1.17501 1.73635,2.29127 2.78085,3.34877 1.0444,1.05751 1.89302,1.7821 2.54585,2.17376 0.62662,0.36557 1.46871,0.59404 2.52627,0.68543 1.05745,0.0914 1.95176,0.15014 2.68293,0.17625 z"
           style="font-variant:normal;font-stretch:normal;font-size:80.2138px;line-height:125%;font-family:Georgia;-inkscape-font-specification:Georgia;fill:#000000"
           id="path3160"
           inkscape:connector-curvature="0" />
      </g>
    </g>
    <path
       fill-rule="evenodd"
       d="m 209.4737,155.75504 v 91.57756 a 18.21085,19.279487 0 0 1 -18.21085,19.27948 v -9.63974 a 9.1054249,9.6397432 0 0 0 9.10543,-9.63974 v -91.57756 h -18.21085 a 13.658138,14.459615 0 0 1 -13.65814,-14.45961 v -19.27949 h -50.07982 a 9.1054249,9.6397432 0 0 0 -9.10542,9.63975 v 86.75768 h -9.10542 v -86.75768 a 18.21085,19.279487 0 0 1 18.21084,-19.27949 h 50.07982 z M 81.997776,255.43965 a 10.28913,10.892909 0 0 0 3.65128,7.93348 c 1.183705,1.04109 2.622362,1.85083 4.352393,2.42922 1.730031,0.58815 3.742325,0.87708 6.055102,0.87708 3.077634,0 5.681789,-0.51103 7.812459,-1.52302 2.15799,-1.01179 3.78785,-2.42922 4.91692,-4.24149 a 10.653347,11.278499 0 0 0 1.70272,-6.32367 c 0,-2.1593 -0.40976,-3.95235 -1.22923,-5.39826 a 9.1054249,9.6397432 0 0 0 -3.41453,-3.44141 18.456696,19.53976 0 0 0 -5.14457,-2.0243 l -5.654466,-1.38812 a 8.8322622,9.3505509 0 0 1 -3.687702,-1.69659 3.3690072,3.5667049 0 0 1 -1.30207,-2.88236 c 0,-1.5038 0.555455,-2.73769 1.675398,-3.70167 1.138173,-0.97374 2.695205,-1.46524 4.671078,-1.46524 1.30208,0 2.422043,0.2221 3.369007,0.65602 a 5.6908905,6.0248394 0 0 1 2.230835,1.74482 5.0990379,5.3982562 0 0 1 1.09265,2.4871 h 6.82907 a 9.9431236,10.526599 0 0 0 -1.81199,-5.45614 11.017564,11.664089 0 0 0 -4.55271,-3.95224 16.508136,17.476855 0 0 0 -7.10223,-1.46525 c -2.667884,0 -5.026194,0.48225 -7.065809,1.44591 -2.048716,0.95421 -3.64217,2.31354 -4.807664,4.05836 -1.156384,1.75438 -1.730031,3.80767 -1.730031,6.15977 0,1.93762 0.364217,3.62455 1.119972,5.05123 0.746693,1.43634 1.811975,2.60278 3.195999,3.53776 1.393135,0.91616 3.023001,1.60991 4.916929,2.05329 l 5.627153,1.38812 c 1.884827,0.47196 3.277951,1.08932 4.206701,1.8605 a 3.5237995,3.7305807 0 0 1 1.39314,3.1425 4.6619776,4.9355485 0 0 1 -0.77399,2.79558 5.0899325,5.3886164 0 0 1 -2.33098,1.86049 c -1.010702,0.45346 -2.26725,0.67453 -3.76054,0.67453 -1.065339,0 -2.039615,-0.12545 -2.913736,-0.38559 a 7.6212406,8.068465 0 0 1 -2.258145,-1.10854 5.2629356,5.5717715 0 0 1 -2.321888,-3.70167 z m 41.657324,10.50727 h 8.66836 l 12.08292,-38.54931 h -8.00374 l -8.07646,30.24957 h -0.34606 l -8.16756,-30.24957 h -8.34968 l 12.19217,38.55897 z m 49.92507,-31.7436 c 0.69249,1.46524 1.11994,3.04616 1.27475,4.74275 h -7.0658 a 7.2570236,7.6828753 0 0 0 -0.87413,-2.40032 6.2736378,6.6417831 0 0 0 -1.54797,-1.8316 6.4375354,6.8152985 0 0 0 -2.15801,-1.21456 8.7685242,9.2830727 0 0 0 -2.73162,-0.42466 c -2.58594,0 -4.6073,0.96346 -6.04601,2.91115 -1.42947,1.92795 -2.13975,4.66564 -2.13975,8.19383 v 4.79098 c 0,2.26532 0.30012,4.24149 0.88287,5.93808 a 8.0218794,8.4926138 0 0 0 2.77717,3.98114 7.9217196,8.3865765 0 0 0 4.71657,1.40745 8.7867351,9.3023522 0 0 0 4.1612,-0.93466 6.1006347,6.458628 0 0 0 2.4858,-2.53523 c 0.54682,-1.06042 0.81974,-2.21719 0.81974,-3.50887 v -2.44854 h -7.49374 v -5.6874 h 14.35014 v 7.69246 c 0,1.8605 -0.29137,3.63421 -0.87412,5.30191 a 11.745999,12.435269 0 0 1 -2.66791,4.40539 12.474433,13.206449 0 0 1 -4.50716,3.02683 c -1.80292,0.7136 -3.91538,1.06998 -6.35564,1.06998 a 18.028742,19.086692 0 0 1 -6.84727,-1.27244 13.17555,13.948709 0 0 1 -4.86225,-3.63411 14.386572,15.230795 0 0 1 -2.90461,-5.59105 22.599665,23.925843 0 0 1 -0.9557,-7.18163 v -4.88733 c 0,-3.4703 0.6012,-6.52613 1.81195,-9.14814 1.22018,-2.61234 2.99571,-4.64641 5.30844,-6.10198 2.33099,-1.46524 5.13546,-2.19786 8.43167,-2.19786 2.16704,0 4.09739,0.31772 5.78192,0.96346 1.71182,0.63648 3.16869,1.52313 4.3706,2.6509 1.22018,1.12788 2.16714,2.43888 2.85916,3.92345 z"
       id="path22"
       style="stroke-width:9.36878" />
  </g>
</svg>
