<?xml version="1.0" encoding="UTF-8" standalone="no"?>
<!-- Created with Inkscape (http://www.inkscape.org/) -->

<svg
   width="48.542221mm"
   height="48.542221mm"
   viewBox="0 0 172 172"
   id="svg8956"
   version="1.1"
   inkscape:version="1.1.1 (3bf5ae0d25, 2021-09-20)"
   sodipodi:docname="MesLong.svg"
   xmlns:inkscape="http://www.inkscape.org/namespaces/inkscape"
   xmlns:sodipodi="http://sodipodi.sourceforge.net/DTD/sodipodi-0.dtd"
   xmlns="http://www.w3.org/2000/svg"
   xmlns:svg="http://www.w3.org/2000/svg"
   xmlns:rdf="http://www.w3.org/1999/02/22-rdf-syntax-ns#"
   xmlns:cc="http://creativecommons.org/ns#"
   xmlns:dc="http://purl.org/dc/elements/1.1/">
  <defs
     id="defs8958">
    <marker
       inkscape:stockid="Arrow2Send"
       orient="auto"
       refY="0"
       refX="0"
       id="Arrow2Send"
       style="overflow:visible">
      <path
         inkscape:connector-curvature="0"
         id="path4703"
         style="fill-rule:evenodd;stroke-width:0.625;stroke-linejoin:round"
         d="M 8.7185878,4.0337352 -2.2072895,0.01601326 8.7185884,-4.0017078 c -1.7454984,2.3720609 -1.7354408,5.6174519 -6e-7,8.035443 z"
         transform="matrix(-0.3,0,0,-0.3,0.69,0)" />
    </marker>
    <marker
       inkscape:stockid="Arrow2Send"
       orient="auto"
       refY="0"
       refX="0"
       id="marker8943"
       style="overflow:visible">
      <path
         inkscape:connector-curvature="0"
         id="path8945"
         style="fill-rule:evenodd;stroke-width:0.625;stroke-linejoin:round"
         d="M 8.7185878,4.0337352 -2.2072895,0.01601326 8.7185884,-4.0017078 c -1.7454984,2.3720609 -1.7354408,5.6174519 -6e-7,8.035443 z"
         transform="matrix(-0.3,0,0,-0.3,0.69,0)" />
    </marker>
  </defs>
  <sodipodi:namedview
     id="base"
     pagecolor="#ffffff"
     bordercolor="#666666"
     borderopacity="1.0"
     inkscape:pageopacity="0.0"
     inkscape:pageshadow="2"
     inkscape:zoom="9.963663"
     inkscape:cx="91.733331"
     inkscape:cy="91.733331"
     inkscape:document-units="px"
     inkscape:current-layer="layer1"
     showgrid="false"
     fit-margin-top="0"
     fit-margin-left="0"
     fit-margin-right="0"
     fit-margin-bottom="0"
     inkscape:window-width="3840"
     inkscape:window-height="2066"
     inkscape:window-x="1609"
     inkscape:window-y="-11"
     inkscape:window-maximized="1"
     inkscape:pagecheckerboard="0" />
  <metadata
     id="metadata8961">
    <rdf:RDF>
      <cc:Work
         rdf:about="">
        <dc:format>image/svg+xml</dc:format>
        <dc:type
           rdf:resource="http://purl.org/dc/dcmitype/StillImage" />
      </cc:Work>
    </rdf:RDF>
  </metadata>
  <g
     inkscape:label="Calque 1"
     inkscape:groupmode="layer"
     id="layer1"
     transform="translate(-125.42857,-169.21935)">
    <path
       style="fill:none;stroke:#000000;stroke-width:4;stroke-linecap:butt;stroke-linejoin:miter;stroke-miterlimit:4;stroke-dasharray:none;stroke-opacity:1"
       d="m 271.42858,284.71935 6,-51"
       id="path5320-9"
       inkscape:connector-curvature="0"
       sodipodi:nodetypes="cc"
       inkscape:export-filename="C:\Users\Seb\Downloads\maths\Mathgraph32\Icones\png\48\MesureLong.png"
       inkscape:export-xdpi="25.11628"
       inkscape:export-ydpi="25.11628" />
    <path
       style="fill:none;stroke:#000000;stroke-width:4;stroke-linecap:butt;stroke-linejoin:miter;stroke-miterlimit:4;stroke-dasharray:none;stroke-opacity:1"
       d="m 149.42858,270.21935 6,-51.00001"
       id="path5320"
       inkscape:connector-curvature="0"
       sodipodi:nodetypes="cc"
       inkscape:export-filename="C:\Users\Seb\Downloads\maths\Mathgraph32\Icones\png\48\MesureLong.png"
       inkscape:export-xdpi="25.11628"
       inkscape:export-ydpi="25.11628" />
    <path
       style="fill:none;stroke:#0084c8;stroke-width:8;stroke-linecap:round;stroke-linejoin:miter;stroke-miterlimit:4;stroke-dasharray:none;stroke-opacity:1"
       d="m 149.42858,270.21935 122,12"
       id="path4150"
       inkscape:connector-curvature="0"
       inkscape:export-filename="C:\Users\Seb\Downloads\maths\Mathgraph32\Icones\png\48\MesureLong.png"
       inkscape:export-xdpi="25.11628"
       inkscape:export-ydpi="25.11628" />
    <path
       style="fill:none;stroke:#000000;stroke-width:6;stroke-linecap:butt;stroke-linejoin:miter;stroke-miterlimit:4;stroke-dasharray:none;stroke-opacity:1;marker-end:url(#marker8943)"
       d="m 202.42858,244.21934 -40,-4"
       id="path4664"
       inkscape:connector-curvature="0"
       sodipodi:nodetypes="cc"
       inkscape:export-filename="C:\Users\Seb\Downloads\maths\Mathgraph32\Icones\png\48\MesureLong.png"
       inkscape:export-xdpi="25.11628"
       inkscape:export-ydpi="25.11628" />
    <path
       style="fill:none;stroke:#000000;stroke-width:6;stroke-linecap:butt;stroke-linejoin:miter;stroke-miterlimit:4;stroke-dasharray:none;stroke-opacity:1;marker-end:url(#Arrow2Send)"
       d="m 229.38997,247.37532 34.99999,3"
       id="path4664-0"
       inkscape:connector-curvature="0"
       sodipodi:nodetypes="cc"
       inkscape:export-filename="C:\Users\Seb\Downloads\maths\Mathgraph32\Icones\png\48\MesureLong.png"
       inkscape:export-xdpi="25.11628"
       inkscape:export-ydpi="25.11628" />
    <path
       style="font-style:normal;font-weight:normal;font-size:40px;line-height:125%;font-family:Sans;letter-spacing:0px;word-spacing:0px;fill:#b50000;fill-opacity:1;stroke:none"
       d="m 220.17179,192.79577 c -12.14055,-1.2718 -22.26704,8.85971 -23.56366,20.47943 6.02255,1.02939 13.60428,5.70162 14.24627,-2.77186 3.29237,-11.51389 22.61785,-6.19498 19.47128,5.1971 -4.60994,8.63981 -17.77387,11.3556 -19.01927,22.54253 -3.56886,8.48316 2.76412,9.72763 10.44681,9.39521 1.11997,-5.33325 2.5685,-12.79264 9.17398,-15.44087 10.27574,-5.3574 16.63339,-19.12177 9.30971,-29.37302 -4.31721,-6.71089 -12.28202,-9.80802 -20.06512,-10.02852 z m -10.84248,58.1154 c -6.32741,10.94219 6.02947,15.34655 12.43997,11.13201 4.40243,-11.27934 -1.65493,-14.13843 -12.19627,-13.38788 l -0.17304,1.6042 -0.0704,0.6517 z"
       id="text4660-8-3-1-7"
       inkscape:connector-curvature="0"
       inkscape:export-filename="C:\Users\Seb\Downloads\maths\Mathgraph32\Icones\png\48\MesureLong.png"
       inkscape:export-xdpi="25.11628"
       inkscape:export-ydpi="25.11628" />
    <path
       id="rect1225"
       style="fill:#d40000;stroke:#800000;stroke-width:0.937498;stroke-linecap:round;stroke-linejoin:round"
       d="m 135.44796,257.07809 8.38979,12.63807 -12.63808,8.38978 3.55979,5.36234 12.63808,-8.38977 8.38978,12.63807 5.36235,-3.55979 -8.38979,-12.63808 12.63944,-8.39069 -3.5598,-5.36234 -12.63942,8.39069 -8.3898,-12.63809 z" />
    <path
       id="path935"
       style="fill:#d40000;stroke:#800000;stroke-width:0.937504;stroke-linecap:round;stroke-linejoin:round"
       d="m 258.56752,269.64722 8.29745,12.49899 -12.49899,8.29745 3.52062,5.30332 12.49899,-8.29744 8.29744,12.49898 5.30334,-3.5206 -8.29746,-12.499 12.50034,-8.29834 -3.52062,-5.30333 -12.50032,8.29834 -8.29747,-12.49899 z" />
  </g>
</svg>
