<?xml version="1.0" encoding="UTF-8" standalone="no"?>
<!-- Created with Inkscape (http://www.inkscape.org/) -->

<svg
   width="48.542221mm"
   height="48.542221mm"
   viewBox="0 0 172 172"
   id="svg13110"
   version="1.1"
   inkscape:version="1.1.1 (3bf5ae0d25, 2021-09-20)"
   sodipodi:docname="Polygone.svg"
   xmlns:inkscape="http://www.inkscape.org/namespaces/inkscape"
   xmlns:sodipodi="http://sodipodi.sourceforge.net/DTD/sodipodi-0.dtd"
   xmlns="http://www.w3.org/2000/svg"
   xmlns:svg="http://www.w3.org/2000/svg"
   xmlns:rdf="http://www.w3.org/1999/02/22-rdf-syntax-ns#"
   xmlns:cc="http://creativecommons.org/ns#"
   xmlns:dc="http://purl.org/dc/elements/1.1/">
  <defs
     id="defs13112" />
  <sodipodi:namedview
     id="base"
     pagecolor="#ffffff"
     bordercolor="#666666"
     borderopacity="1.0"
     inkscape:pageopacity="0.0"
     inkscape:pageshadow="2"
     inkscape:zoom="9.963663"
     inkscape:cx="91.733331"
     inkscape:cy="91.733331"
     inkscape:document-units="px"
     inkscape:current-layer="layer1"
     showgrid="false"
     fit-margin-top="0"
     fit-margin-left="0"
     fit-margin-right="0"
     fit-margin-bottom="0"
     inkscape:window-width="3840"
     inkscape:window-height="2066"
     inkscape:window-x="1609"
     inkscape:window-y="-11"
     inkscape:window-maximized="1"
     inkscape:pagecheckerboard="0" />
  <metadata
     id="metadata13115">
    <rdf:RDF>
      <cc:Work
         rdf:about="">
        <dc:format>image/svg+xml</dc:format>
        <dc:type
           rdf:resource="http://purl.org/dc/dcmitype/StillImage" />
      </cc:Work>
    </rdf:RDF>
  </metadata>
  <g
     inkscape:label="Calque 1"
     inkscape:groupmode="layer"
     id="layer1"
     transform="translate(-151.14286,-132.07648)">
    <path
       style="fill:none;stroke:#0e232e;stroke-width:8;stroke-linecap:round;stroke-linejoin:round;stroke-miterlimit:4;stroke-dasharray:none;stroke-opacity:1"
       d="m 202.14286,149.07649 -37,61 31,58 92.00001,19 13,-70 -42,-56 z"
       id="path3077"
       inkscape:connector-curvature="0"
       sodipodi:nodetypes="ccccccc"
       inkscape:export-filename="C:\Users\Seb\Downloads\maths\Mathgraph32\Icones\png\24\Polygone.png"
       inkscape:export-xdpi="12.55814"
       inkscape:export-ydpi="12.55814" />
    <path
       id="rect1225"
       style="fill:#d40000;stroke:#800000;stroke-width:0.9375;stroke-linecap:round;stroke-linejoin:round"
       d="m 178.91334,191.84152 -12.08391,12.08391 -12.08392,-12.08391 -5.12721,5.12721 12.08391,12.08391 -12.08391,12.08392 5.12721,5.12721 12.08392,-12.08391 12.08521,12.08521 5.12721,-5.12722 -12.08521,-12.0852 12.08392,-12.08392 z" />
    <path
       id="rect1225-6"
       style="fill:#d40000;stroke:#800000;stroke-width:0.9375;stroke-linecap:round;stroke-linejoin:round"
       d="m 214.45432,133.19398 -12.08391,12.08391 -12.08392,-12.08391 -5.12721,5.12721 12.08391,12.08391 -12.08391,12.08392 5.12721,5.12721 12.08392,-12.08391 12.08521,12.08521 5.12721,-5.12722 -12.08521,-12.0852 12.08392,-12.08392 z" />
    <path
       id="rect1225-3"
       style="fill:#d40000;stroke:#800000;stroke-width:0.9375;stroke-linecap:round;stroke-linejoin:round"
       d="m 271.70204,145.74966 -12.08391,12.08391 -12.08392,-12.08391 -5.12721,5.12721 12.08391,12.08391 -12.08391,12.08392 5.12721,5.12721 12.08392,-12.08391 12.08521,12.08521 5.12721,-5.12722 -12.08521,-12.0852 12.08392,-12.08392 z" />
    <path
       id="rect1225-5"
       style="fill:#d40000;stroke:#800000;stroke-width:0.9375;stroke-linecap:round;stroke-linejoin:round"
       d="m 312.07228,201.50922 -12.08391,12.08391 -12.08392,-12.08391 -5.12721,5.12721 12.08391,12.08391 -12.08391,12.08392 5.12721,5.12721 12.08392,-12.08391 12.08521,12.08521 5.12721,-5.12722 -12.08521,-12.0852 12.08392,-12.08392 z" />
    <path
       id="rect1225-35"
       style="fill:#d40000;stroke:#800000;stroke-width:0.9375;stroke-linecap:round;stroke-linejoin:round"
       d="m 298.75639,268.42464 -12.08391,12.08391 -12.08392,-12.08391 -5.12721,5.12721 12.08391,12.08391 -12.08391,12.08392 5.12721,5.12721 12.08392,-12.08391 12.08521,12.08521 5.12721,-5.12722 -12.08521,-12.0852 12.08392,-12.08392 z" />
    <path
       id="rect1225-4"
       style="fill:#d40000;stroke:#800000;stroke-width:0.9375;stroke-linecap:round;stroke-linejoin:round"
       d="m 208.56355,249.4656 -12.08391,12.08391 -12.08392,-12.08391 -5.12721,5.12721 12.08391,12.08391 -12.08391,12.08392 5.12721,5.12721 12.08392,-12.08391 12.08521,12.08521 5.12721,-5.12722 -12.08521,-12.0852 12.08392,-12.08392 z" />
  </g>
</svg>
