<?xml version="1.0" encoding="UTF-8" standalone="no"?>
<!-- Created with Inkscape (http://www.inkscape.org/) -->

<svg
   width="86.36689"
   height="76.952637"
   viewBox="0 0 28.788964 25.650879"
   version="1.1"
   id="svg5"
   xml:space="preserve"
   sodipodi:docname="logo_de_mathalea2.svg"
   inkscape:version="1.2.2 (732a01da63, 2022-12-09)"
   inkscape:export-filename="tshirt_v4_dev_crew+team_infini3.png"
   inkscape:export-xdpi="600"
   inkscape:export-ydpi="600"
   xmlns:inkscape="http://www.inkscape.org/namespaces/inkscape"
   xmlns:sodipodi="http://sodipodi.sourceforge.net/DTD/sodipodi-0.dtd"
   xmlns="http://www.w3.org/2000/svg"
   xmlns:svg="http://www.w3.org/2000/svg"
   xmlns:ns1="http://www.iki.fi/pav/software/textext/"><sodipodi:namedview
     id="namedview2541"
     pagecolor="#ffffff"
     bordercolor="#000000"
     borderopacity="0.25"
     inkscape:showpageshadow="2"
     inkscape:pageopacity="0.0"
     inkscape:pagecheckerboard="0"
     inkscape:deskcolor="#d1d1d1"
     showgrid="false"
     inkscape:zoom="3.6370865"
     inkscape:cx="58.15094"
     inkscape:cy="36.567731"
     inkscape:window-width="1827"
     inkscape:window-height="1040"
     inkscape:window-x="82"
     inkscape:window-y="-11"
     inkscape:window-maximized="1"
     inkscape:current-layer="svg5" /><defs
     id="defs2" /><g
     id="layer"
     transform="matrix(1.1066746,0,0,1.1066746,-0.24590057,-1.8149428)"
     style="display:inline"><path
       id="path257"
       style="fill:#ffffff;stroke:#f15929;stroke-width:0.264583px;stroke-linecap:butt;stroke-linejoin:miter;stroke-opacity:1"
       d="M 5.9528265,2.9182901 0.66142817,12.083365 a 2.2916613,2.2916613 0 0 0 5.8e-6,2.291652 L 5.952933,23.540162 a 2.2916615,2.2916615 0 0 0 1.984626,1.145831 l 10.582886,5.2e-5 a 2.2916739,2.2916739 0 0 0 1.984643,-1.145808 l 5.291801,-9.16536 a 2.2916097,2.2916097 0 0 0 1.7e-5,-2.291639 L 20.505407,2.9180933 A 2.2916096,2.2916096 0 0 0 18.520781,1.7722883 L 7.9374468,1.7724432 A 2.2916742,2.2916742 0 0 0 5.9528265,2.9182901 Z" /><path
       style="display:inline;fill:#f15929;stroke:none;stroke-width:0.251354px;stroke-linecap:butt;stroke-linejoin:miter;stroke-opacity:1"
       d="m 1.1244277,14.603975 5.0270835,8.707164 a 2.1767904,2.1767904 0 0 0 1.8851554,1.088395 H 18.090834 a 0.72559686,0.72559686 0 0 0 0.628385,-1.088395 L 13.692136,14.603975 A 2.1767906,2.1767906 0 0 0 11.80698,13.51558 H 1.7528126 a 0.7255968,0.7255968 0 0 0 -0.6283849,1.088395 z"
       id="path751" /><path
       style="fill:#f15929;fill-opacity:1;stroke:none;stroke-width:0.251354px;stroke-linecap:butt;stroke-linejoin:miter;stroke-opacity:1"
       d="M 1.1244277,11.854344 6.1515105,3.147181 A 2.1767915,2.1767915 0 0 1 8.0366677,2.0587849 l 10.0541663,-3e-7 A 0.72559716,0.72559716 0 0 1 18.71922,3.1471807 L 13.692137,11.854344 A 2.1767914,2.1767914 0 0 1 11.806979,12.94274 H 1.7528134 A 0.72559719,0.72559719 0 0 1 1.1244277,11.854344 Z"
       id="path806" /><path
       style="fill:#f15929;fill-opacity:1;stroke:none;stroke-width:0.251354px;stroke-linecap:butt;stroke-linejoin:miter;stroke-opacity:1"
       d="m 14.188231,12.140764 5.027082,-8.7071637 a 0.7255972,0.7255972 0 0 1 1.256771,3e-7 l 5.027083,8.7071634 a 2.1767915,2.1767915 0 0 1 0,2.176792 l -5.027082,8.707163 a 0.72559725,0.72559725 0 0 1 -1.256772,-1e-6 L 14.18823,14.317556 a 2.1767917,2.1767917 0 0 1 10e-7,-2.176792 z"
       id="path1088" /><g
       aria-label="ALÉA"
       id="text635"
       style="font-weight:900;font-stretch:condensed;font-size:4.23333px;line-height:1.25;font-family:'Barlow Condensed';-inkscape-font-specification:'Barlow Condensed, Heavy Condensed';text-align:end;text-anchor:end;fill:#ffffff;stroke-width:0.264583"
       transform="matrix(0.67718777,0,0,0.67718777,43.028677,5.0409095)"><path
         d="m -38.900216,13.4688 0.497292,0.864893 c 0.02786,0.04845 0.0754,0.02104 0.139522,-0.08763 l 0.03205,-0.05432 4.893734,-9.7898081 c 0.06473,-0.130672 0.07753,-0.2153113 0.04936,-0.2621938 L -33.85649,3.1938869 c -0.02803,-0.046664 -0.07822,-0.024537 -0.155342,0.084875 l -5.758541,8.2390101 c -0.09395,0.137515 -0.118533,0.231493 -0.08795,0.284686 l 0.481201,0.836909 c 0.02764,0.04807 0.07805,0.02608 0.161071,-0.103731 l 0.629797,-0.959308 c 0.02394,-0.04048 0.0602,-0.05966 0.06944,-0.04369 l 0.2713,0.469028 c 0.0093,0.01601 -0.0024,0.07789 -0.02632,0.118432 l -0.565664,1.07333 c -0.07696,0.140709 -0.09047,0.227097 -0.06273,0.275344 z m 1.62495,-3.8773219 1.50387,-2.2907027 c 0.04272,-0.061816 0.05516,-0.040749 0.01863,0.031539 l -1.346212,2.5610618 c -0.02876,0.059111 -0.05083,0.075535 -0.06324,0.054285 l -0.145339,-0.2489977 c -0.01236,-0.021174 5.22e-4,-0.05349 0.03229,-0.1071957 z"
         id="path687"
         style="fill:#ffffff" /><path
         d="m -38.213993,14.662284 1.164627,2.025525 c 0.02816,0.04897 0.0952,-4.73e-4 0.167593,-0.123607 l 1.052101,-1.789598 c 0.07217,-0.122765 0.101441,-0.237031 0.07319,-0.285676 l -0.610642,-1.051309 c -0.01249,-0.02151 -0.0027,-0.05955 0.02927,-0.113794 l 4.122364,-6.9993087 c 0.07122,-0.1209292 0.09975,-0.233077 0.07133,-0.2803799 l -0.497867,-0.8287266 c -0.0283,-0.047109 -0.09457,0.00185 -0.165684,0.1224046 l -5.332512,9.0397596 c -0.07215,0.12231 -0.101665,0.236198 -0.07377,0.28471 z"
         id="path689"
         style="fill:#ffffff" /><path
         d="m -29.954157,8.5513113 -0.390494,-0.648282 c -0.02557,-0.042446 -0.06854,-0.033719 -0.136843,0.039695 l -0.913787,0.9657844 c -0.03023,0.029921 -0.05723,0.065247 -0.08107,0.1058529 -0.04769,0.08122 -0.05562,0.1484539 -0.03016,0.1910381 l 0.315525,0.5277819 c 0.02553,0.04271 0.06536,0.028699 0.12906,-0.025997 l 0.993644,-0.8640328 c 0.03345,-0.024684 0.06049,-0.060025 0.08432,-0.1006864 0.03972,-0.067764 0.05545,-0.1485882 0.02981,-0.1911585 z m -1.223409,3.0234807 1.043743,-1.7819918 c 0.0716,-0.1222435 0.100069,-0.2357806 0.07119,-0.2838533 L -31.24438,7.5418645 c -0.02861,-0.047624 -0.09525,0.00158 -0.166623,0.1230133 l -5.351752,9.1061232 c -0.07241,0.123213 -0.101899,0.238059 -0.0737,0.287105 l 1.164835,2.025887 c 0.02847,0.04951 0.09589,-1.81e-4 0.168545,-0.124221 l 1.055901,-1.80275 c 0.07243,-0.123666 0.101668,-0.238888 0.0731,-0.288065 l -0.604686,-1.041055 c -0.01263,-0.02174 -0.0028,-0.06011 0.02924,-0.114752 l 0.778227,-1.32628 c 0.03205,-0.05462 0.05444,-0.07108 0.06708,-0.04947 l 0.313776,0.536521 c 0.02856,0.04884 0.09574,-6.94e-4 0.167911,-0.123826 l 1.048997,-1.789557 c 0.07196,-0.122762 0.100817,-0.236937 0.07216,-0.285447 l -0.314817,-0.532898 c -0.0127,-0.0215 -0.0031,-0.05948 0.02886,-0.113909 l 0.765769,-1.305047 c 0.03187,-0.05432 0.05736,-0.06542 0.0669,-0.04937 l 0.609406,1.024617 c 0.02879,0.0484 0.09587,-0.0011 0.167681,-0.123691 z"
         id="path691"
         style="fill:#ffffff" /><path
         d="m -34.540656,21.050973 0.514798,0.89534 c 0.02884,0.05016 0.07729,0.02242 0.142159,-0.08882 l 0.03242,-0.0556 4.939089,-10.027638 c 0.06531,-0.133831 0.07781,-0.220802 0.04866,-0.269321 L -29.451575,10.5261 c -0.02901,-0.04829 -0.0802,-0.02601 -0.15834,0.08582 l -5.834446,8.422079 c -0.09517,0.140606 -0.119681,0.237091 -0.08803,0.292147 l 0.498074,0.866253 c 0.02861,0.04976 0.08003,0.02763 0.164085,-0.105166 l 0.63777,-0.981161 c 0.02422,-0.04142 0.06118,-0.06081 0.07074,-0.04427 l 0.280822,0.485488 c 0.0096,0.01657 -0.0019,0.08015 -0.02611,0.121645 l -0.571374,1.099203 c -0.07777,0.144075 -0.09101,0.232868 -0.06229,0.282812 z m 1.635815,-3.97481 1.522772,-2.342677 c 0.04328,-0.06319 0.05616,-0.04139 0.01928,0.03264 l -1.35959,2.622511 c -0.02902,0.06055 -0.05149,0.07724 -0.06432,0.05524 l -0.150432,-0.257722 c -0.01279,-0.02192 1.65e-4,-0.05505 0.03229,-0.110009 z"
         id="path693"
         style="fill:#ffffff" /></g><g
       aria-label="MATH"
       id="text313"
       style="font-weight:900;font-stretch:condensed;font-size:4.23333px;line-height:1.25;font-family:'Barlow Condensed';-inkscape-font-specification:'Barlow Condensed, Heavy Condensed';text-align:end;text-anchor:end;fill:#ffffff;stroke-width:0.264583"
       transform="matrix(0.67396594,0,0,0.67396594,3.2478991,2.4532707)"><path
         d="M 8.8508392,2.5682901 7.3884659,4.4516392 c -0.053077,0.073471 -0.069359,0.058757 -0.048982,-3.48e-5 L 7.9561098,2.566765 C 7.9970264,2.4487436 7.9847765,2.4044299 7.9357138,2.4043421 l -0.9571346,-0.00171 c -0.055249,-9.89e-5 -0.1411121,0.088381 -0.214642,0.221175 L 1.334589,12.429144 c -0.072338,0.130642 -0.08392,0.217589 -0.028971,0.217392 l 0.9641481,-0.0035 c 0.05489,-1.98e-4 0.1397525,-0.08736 0.2121707,-0.21792 L 5.7732442,6.4912128 c 0.048762,-0.087913 0.089488,-0.1172288 0.059084,-0.029329 l -0.5218517,1.6674854 0.00606,-7.4e-6 0.2070804,-0.2630716 1.1281578,-1.404693 c 0.05901,-0.073237 0.075322,-0.058596 0.026512,0.029286 l -3.294156,5.9311198 c -0.072481,0.130502 -0.084237,0.217356 -0.029406,0.217159 l 0.9620728,-0.0035 c 0.054772,-1.97e-4 0.1396506,-0.08726 0.2122113,-0.217686 L 9.9749828,2.6291779 C 10.048737,2.496609 10.061204,2.408148 10.006135,2.4080495 L 9.05109,2.4063398 C 9.0020825,2.4062521 8.940765,2.450412 8.8507735,2.568291 Z"
         id="path423"
         style="fill:#ffffff" /><path
         d="m 6.5781548,12.627557 0.9770088,-0.0035 c 0.054586,-1.97e-4 0.1172561,-0.05816 0.1819503,-0.173892 l 0.032351,-0.05787 4.6049121,-9.7885317 c 0.06167,-0.1324296 0.05795,-0.1913515 0.003,-0.1914499 l -1.111523,-0.00199 c -0.055,-9.85e-5 -0.124486,0.058733 -0.210546,0.1912118 L 4.7318712,12.402842 c -0.1009192,0.159435 -0.1107602,0.23176 -0.049926,0.231541 l 0.9546528,-0.0034 c 0.054696,-1.97e-4 0.1234414,-0.05824 0.2102373,-0.203075 l 0.6668369,-1.087353 c 0.024265,-0.04353 0.072851,-0.08713 0.091094,-0.08718 l 0.5349504,-0.0015 c 0.018232,-5.3e-5 0.018254,0.04339 -0.00603,0.0869 l -0.5396179,1.086554 c -0.074755,0.14473 -0.070588,0.202492 -0.015943,0.202296 z M 7.9117249,9.0727741 9.522673,6.4459841 C 9.569502,6.3728591 9.593934,6.3728521 9.55924,6.4459716 L 8.2586288,9.0721749 c -0.02645,0.058221 -0.054766,0.087358 -0.079158,0.087401 L 7.8934401,9.160083 c -0.024342,4.32e-5 -0.014195,-0.029077 0.018275,-0.087309 z"
         id="path425"
         style="fill:#ffffff" /><path
         d="m 15.752805,2.4183372 -2.63715,-0.00472 c -0.05489,-9.83e-5 -0.140802,0.088094 -0.21476,0.220458 L 11.826219,4.557455 c -0.07371,0.1319183 -0.08629,0.2198677 -0.03146,0.2198973 l 0.700249,3.778e-4 c 0.02434,1.32e-5 0.02013,0.029326 -0.01264,0.087898 L 8.2646673,12.404992 c -0.072819,0.130169 -0.084989,0.216801 -0.030439,0.216605 l 0.9571401,-0.0034 c 0.054492,-1.96e-4 0.1394075,-0.08704 0.2123055,-0.217129 L 13.625905,4.8662366 c 0.03281,-0.058548 0.06745,-0.087816 0.08569,-0.087806 l 0.717054,3.869e-4 c 0.05467,2.95e-5 0.140372,-0.08775 0.214275,-0.2194713 l 1.07751,-1.9205085 c 0.07415,-0.1321657 0.08711,-0.2203573 0.03237,-0.2204549 z"
         id="path427"
         style="fill:#ffffff" /><path
         d="m 17.445754,2.6416791 -2.040275,3.6273564 c -0.03281,0.058328 -0.06137,0.087495 -0.08556,0.087502 l -0.278709,8.24e-5 c -0.02424,7.2e-6 -0.01176,-0.043742 0.01284,-0.087497 l 2.039609,-3.6280333 c 0.07425,-0.1320692 0.08732,-0.2201964 0.03266,-0.2202943 l -0.960034,-0.00172 c -0.05472,-9.79e-5 -0.140647,0.087952 -0.214816,0.2201017 l -5.476682,9.758109 c -0.07297,0.130018 -0.08533,0.21655 -0.0309,0.216354 l 0.95491,-0.0034 c 0.05436,-1.96e-4 0.139297,-0.08694 0.212347,-0.216878 l 2.027277,-3.6060963 c 0.03266,-0.058103 0.06115,-0.087178 0.08531,-0.087215 l 0.278366,-4.273e-4 c 0.0242,-3.72e-5 0.01996,0.029005 -0.01271,0.087087 l -2.027943,3.6054306 c -0.07307,0.129917 -0.08556,0.216381 -0.03122,0.216186 l 0.953412,-0.0034 c 0.05428,-1.95e-4 0.139223,-0.08687 0.212375,-0.216708 l 5.490125,-9.7445646 c 0.07435,-0.1319645 0.08755,-0.2200218 0.03298,-0.2201195 L 17.6606,2.4218149 c -0.05463,-9.77e-5 -0.140572,0.087883 -0.214843,0.2199271 z"
         id="path429"
         style="fill:#ffffff" /></g><g
       transform="matrix(1.2575342,0,0,1.2575342,-11.158322,18.020607)"
       ns1:version="1.8.2"
       ns1:texconverter="pdflatex"
       ns1:pdfconverter="inkscape"
       ns1:text="$x$"
       ns1:preamble="/home/sylcha/.config/inkscape/extensions/textext/default_packages.tex"
       ns1:scale="5.382042247532443"
       ns1:alignment="middle center"
       ns1:stroke-to-path="0"
       ns1:inkscapeversion="1.2.2"
       ns1:jacobian_sqrt="1.89867"
       id="g737"
       style="display:inline;fill:#ffffff"><defs
         id="id-42c53f38-908d-4aed-8b3a-54be94fd914a" /><g
         fill="#000000"
         fill-opacity="1"
         id="id-066c8e19-fdc5-421d-85c2-1ef9e85e70c1"
         transform="translate(-149.009,-130.359)"
         style="fill:#ffffff"><g
           transform="translate(148.712,134.765)"
           id="g734"
           style="fill:#ffffff"><path
             d="m 16.646315,-4.7041442 c -0.09221,-0.2938879 -0.426155,-1.3736636 0.4244,-1.3793053 0.05799,-3.846e-4 0.367264,-0.00244 0.70361,0.141668 -0.305569,0.075241 -0.378338,0.3505248 -0.208138,0.6429574 0.10651,0.1830018 0.370192,0.4019316 0.699822,0.3997268 0.271452,-0.00182 0.541341,-0.2059224 0.263198,-0.6813687 -0.352017,-0.6017218 -1.162502,-0.7607614 -1.587467,-0.7579478 -0.714752,0.00473 -0.781108,0.6270814 -0.787993,0.883812 -0.752365,-0.7640115 -1.472333,-0.8688466 -1.83944,-0.866416 -1.275311,0.00844 -1.137073,1.5111836 -0.969788,1.804875 0.07327,0.1286342 0.209231,0.1277218 0.228655,0.1275914 0.09712,-6.517e-4 0.114993,-0.037673 0.08201,-0.1296744 -0.284426,-1.2478371 0.328918,-1.4383687 0.753398,-1.4660594 0.52836,-0.034467 0.943283,0.198389 1.291109,0.896462 1.39656,2.8028457 0.196886,0.3982148 1.282635,2.6083167 0.221548,0.7268865 0.06062,1.2339172 -0.487686,1.2376782 -0.07833,5.373e-4 -0.352496,0.00242 -0.711874,-0.1451728 0.270576,-0.076836 0.405943,-0.3212483 0.214278,-0.6565554 -0.180706,-0.3161351 -0.507095,-0.4071565 -0.68279,-0.4059614 -0.390445,0.00266 -0.514183,0.302048 -0.29183,0.6930955 0.307814,0.5413468 1.053615,0.78034682 1.602322,0.77657634 0.842602,-0.00579 0.810029,-0.84918824 0.797437,-0.90520974 0.403229,0.4278232 1.122815,0.89201459 1.867309,0.88689875 1.292947,-0.008885 1.10574,-1.54183425 0.932453,-1.83856905 -0.07573,-0.1296752 -0.173168,-0.1290146 -0.212144,-0.1287503 -0.11693,7.927e-4 -0.104009,0.05649 -0.09977,0.1308669 0.337423,1.2858417 -0.341336,1.5716955 -0.732886,1.5743812 -0.489457,0.00336 -0.900693,-0.368694 -1.137195,-0.7785806 -1.368077,-2.6523684 0.01206,0.02374 -1.393635,-2.6653353 z"
             id="id-16df74d3-f610-435f-91a0-9b4b455059a2"
             style="display:inline;fill:#ffffff"
             inkscape:label="id-16df74d3-f610-435f-91a0-9b4b455059a2"
             sodipodi:nodetypes="cscsssscssscsscscsssscssscscc" /></g></g></g></g></svg>
