<?xml version="1.0" encoding="UTF-8" standalone="no"?>
<!-- Created with Inkscape (http://www.inkscape.org/) -->

<svg
   width="13.811788mm"
   height="5.5842113mm"
   viewBox="0 0 13.811788 5.5842114"
   version="1.1"
   id="svg5"
   xmlns="http://www.w3.org/2000/svg"
   xmlns:svg="http://www.w3.org/2000/svg">
  <defs
     id="defs2">
    <clipPath
       id="clipPath2552">
      <path
         clip-rule="nonzero"
         d="M 20,3 H 30 V 15.46875 H 20 Z m 0,0"
         id="path3784" />
    </clipPath>
    <clipPath
       id="clipPath2841">
      <path
         clip-rule="nonzero"
         d="M 28,0 H 40.273438 V 12 H 28 Z m 0,0"
         id="path2755" />
    </clipPath>
  </defs>
  <g
     id="g1128">
    <g
       fill="#000000"
       fill-opacity="1"
       id="g31"
       transform="matrix(0.352778,0,0,0.352778,-0.308681,0.127794)">
      <g
         id="use29"
         transform="translate(0,11.761)">
        <path
           d="m 9.328125,-4.359375 h -0.3125 c -0.125,1.703125 -0.359375,3.90625 -3.296875,3.90625 H 4.109375 c -0.6875,0 -0.71875,-0.078125 -0.71875,-0.671875 v -9.390625 c 0,-0.625 0.03125,-0.796875 1.34375,-0.796875 h 0.375 v -0.453125 c -0.703125,0.04687 -1.53125,0.04687 -2.234375,0.04687 -0.53125,0 -1.5,0 -2,-0.04687 v 0.453125 c 1.1875,0 1.375,0 1.375,0.78125 v 9.3125 c 0,0.765625 -0.1875,0.765625 -1.375,0.765625 V 0 h 8.046875 z m 0,0"
           id="path57" />
      </g>
    </g>
    <g
       fill="#000000"
       fill-opacity="1"
       id="g35"
       transform="matrix(0.352778,0,0,0.352778,-0.308681,0.127794)">
      <g
         id="use33"
         transform="translate(4.2309999,8.1689997)">
        <path
           d="M 4.625,-8.3125 C 4.578125,-8.46875 4.546875,-8.53125 4.390625,-8.53125 c -0.171875,0 -0.1875,0.03125 -0.25,0.21875 l -2.5,7.15625 c -0.171875,0.484375 -0.5,0.796875 -1.265625,0.8125 V 0 c 0.71875,-0.03125 0.75,-0.03125 1.140625,-0.03125 0.34375,0 0.90625,0 1.21875,0.03125 V -0.34375 C 2.234375,-0.359375 1.9375,-0.609375 1.9375,-0.9375 c 0,-0.078125 0,-0.109375 0.0625,-0.25 L 2.546875,-2.78125 H 5.5625 l 0.65625,1.875 c 0.0625,0.140625 0.0625,0.171875 0.0625,0.203125 0,0.359375 -0.609375,0.359375 -0.921875,0.359375 V 0 c 0.28125,-0.03125 1.234375,-0.03125 1.5625,-0.03125 0.328125,0 1.1875,0 1.46875,0.03125 v -0.34375 c -0.78125,0 -0.984375,0 -1.15625,-0.5 z M 4.046875,-7.109375 5.4375,-3.125 H 2.671875 Z m 0,0"
           id="path61" />
      </g>
    </g>
    <g
       fill="#000000"
       fill-opacity="1"
       id="g39"
       transform="matrix(0.352778,0,0,0.352778,-0.308681,0.127794)">
      <g
         id="use37"
         transform="translate(10.638,11.761)">
        <path
           d="M 10.703125,-11.703125 H 0.78125 L 0.484375,-7.90625 h 0.3125 c 0.21875,-2.859375 0.453125,-3.359375 3.109375,-3.359375 0.3125,0 0.8125,0 0.953125,0.01563 0.328125,0.0625 0.328125,0.265625 0.328125,0.65625 V -1.25 c 0,0.609375 -0.0625,0.796875 -1.484375,0.796875 H 3.21875 V 0 C 4.046875,-0.015625 4.90625,-0.03125 5.75,-0.03125 6.59375,-0.03125 7.453125,-0.015625 8.28125,0 V -0.453125 H 7.796875 C 6.375,-0.453125 6.3125,-0.640625 6.3125,-1.25 v -9.34375 c 0,-0.375 0,-0.578125 0.3125,-0.65625 0.140625,-0.01563 0.640625,-0.01563 0.953125,-0.01563 2.625,0 2.890625,0.5 3.109375,3.359375 H 11 Z m 0,0"
           id="path65" />
      </g>
    </g>
    <g
       clip-path="url(#clipPath2552)"
       id="g45"
       transform="matrix(0.352778,0,0,0.352778,-0.308681,0.127794)">
      <g
         fill="#000000"
         fill-opacity="1"
         id="g43">
        <g
           id="use41"
           transform="translate(19.497999,15.467)">
          <path
             d="m 10.453125,-4.359375 h -0.3125 c -0.375,2.53125 -0.59375,3.90625 -3.625,3.90625 h -2.40625 c -0.6875,0 -0.71875,-0.078125 -0.71875,-0.671875 v -4.75 h 1.625 c 1.609375,0 1.765625,0.59375 1.765625,2.015625 h 0.3125 v -4.46875 h -0.3125 c 0,1.421875 -0.15625,2.015625 -1.765625,2.015625 h -1.625 v -4.296875 c 0,-0.578125 0.03125,-0.671875 0.71875,-0.671875 H 6.46875 c 2.671875,0 2.984375,1.078125 3.21875,3.359375 H 10 L 9.59375,-11.71875 H 0.875 v 0.4375 c 1.1875,0 1.375,0 1.375,0.78125 v 9.28125 c 0,0.765625 -0.1875,0.765625 -1.375,0.765625 V 0 h 8.953125 z m 0,0"
             id="path69" />
        </g>
      </g>
    </g>
    <g
       clip-path="url(#clipPath2841)"
       id="g51"
       transform="matrix(0.352778,0,0,0.352778,-0.308681,0.127794)">
      <g
         fill="#000000"
         fill-opacity="1"
         id="g49">
        <g
           id="use47"
           transform="translate(28.339001,11.761)">
          <path
             d="m 6.28125,-6.53125 2.546875,-3.65625 c 0.265625,-0.375 0.78125,-1.109375 2.1875,-1.125 v -0.453125 c -0.390625,0.04687 -1.046875,0.04687 -1.453125,0.04687 -0.578125,0 -1.28125,0 -1.703125,-0.04687 v 0.453125 c 0.546875,0.04687 0.6875,0.390625 0.6875,0.671875 0,0.203125 -0.09375,0.34375 -0.21875,0.515625 L 6.0625,-6.828125 3.515625,-10.5625 C 3.390625,-10.75 3.375,-10.796875 3.375,-10.84375 3.375,-11 3.5625,-11.296875 4.125,-11.3125 v -0.453125 c -0.546875,0.04687 -1.390625,0.04687 -1.953125,0.04687 -0.453125,0 -1.3125,0 -1.71875,-0.04687 v 0.453125 c 0.9375,0 1.25,0.03125 1.625,0.5625 l 3.328125,4.859375 -3,4.359375 c -0.734375,1.0625 -1.859375,1.078125 -2.1875,1.078125 V 0 c 0.40625,-0.03125 1.0625,-0.03125 1.46875,-0.03125 0.46875,0 1.28125,0 1.703125,0.03125 V -0.453125 C 2.859375,-0.5 2.703125,-0.84375 2.703125,-1.125 c 0,-0.21875 0.09375,-0.34375 0.171875,-0.453125 l 2.75,-4 3,4.375 c 0.140625,0.1875 0.140625,0.234375 0.140625,0.296875 0,0.125 -0.15625,0.421875 -0.765625,0.453125 V 0 c 0.5625,-0.03125 1.40625,-0.03125 1.96875,-0.03125 0.453125,0 1.3125,0 1.71875,0.03125 v -0.453125 c -1.09375,0 -1.265625,-0.078125 -1.609375,-0.5625 z m 0,0"
             id="path73" />
        </g>
      </g>
    </g>
  </g>
</svg>
