<?xml version="1.0" encoding="UTF-8" standalone="no"?>
<!-- Created with Inkscape (http://www.inkscape.org/) -->

<svg
   width="31.999998"
   height="31.999998"
   viewBox="0 0 8.4666661 8.4666661"
   version="1.1"
   id="svg5"
   inkscape:version="1.2.2 (b0a8486541, 2022-12-01)"
   sodipodi:docname="no_interactivity_icon.svg"
   inkscape:export-filename="../icones/icones/interactivity_icon.svg"
   inkscape:export-xdpi="96"
   inkscape:export-ydpi="96"
   xmlns:inkscape="http://www.inkscape.org/namespaces/inkscape"
   xmlns:sodipodi="http://sodipodi.sourceforge.net/DTD/sodipodi-0.dtd"
   xmlns="http://www.w3.org/2000/svg"
   xmlns:svg="http://www.w3.org/2000/svg">
  <sodipodi:namedview
     id="namedview7"
     pagecolor="#ffffff"
     bordercolor="#999999"
     borderopacity="1"
     inkscape:showpageshadow="0"
     inkscape:pageopacity="0"
     inkscape:pagecheckerboard="0"
     inkscape:deskcolor="#d1d1d1"
     inkscape:document-units="mm"
     showgrid="true"
     inkscape:zoom="15.839192"
     inkscape:cx="8.9966711"
     inkscape:cy="16.920055"
     inkscape:window-width="1920"
     inkscape:window-height="1051"
     inkscape:window-x="1920"
     inkscape:window-y="0"
     inkscape:window-maximized="1"
     inkscape:current-layer="layer1">
    <inkscape:grid
       type="xygrid"
       id="grid132" />
  </sodipodi:namedview>
  <defs
     id="defs2">
    <marker
       style="overflow:visible"
       id="TriangleStart"
       refX="0"
       refY="0"
       orient="auto-start-reverse"
       inkscape:stockid="TriangleStart"
       markerWidth="2"
       markerHeight="2"
       viewBox="0 0 5.3244081 6.1553851"
       inkscape:isstock="true"
       inkscape:collect="always"
       preserveAspectRatio="xMidYMid">
      <path
         transform="scale(0.5)"
         style="fill:context-stroke;fill-rule:evenodd;stroke:context-stroke;stroke-width:1pt"
         d="M 5.77,0 -2.88,5 V -5 Z"
         id="path135" />
    </marker>
    <marker
       style="overflow:visible"
       id="TriangleStart-7"
       refX="0"
       refY="0"
       orient="auto-start-reverse"
       inkscape:stockid="TriangleStart"
       markerWidth="2"
       markerHeight="2"
       viewBox="0 0 5.3244081 6.1553851"
       inkscape:isstock="true"
       inkscape:collect="always"
       preserveAspectRatio="xMidYMid">
      <path
         transform="scale(0.5)"
         style="fill:context-stroke;fill-rule:evenodd;stroke:context-stroke;stroke-width:1pt"
         d="M 5.77,0 -2.88,5 V -5 Z"
         id="path135-5" />
    </marker>
  </defs>
  <g
     inkscape:label="Layer 1"
     inkscape:groupmode="layer"
     id="layer1">
    <g
       id="g1880"
       transform="matrix(0.87061954,0,0,0.87061954,0.72346551,1.1111786)">
      <path
         d="m 6.1168053,4.0215464 c -1.1489134,0 -2.0836295,0.9347161 -2.0836295,2.0836294 0,1.1489132 0.9347161,2.0836297 2.0836295,2.0836297 1.1489133,0 2.0836295,-0.9347165 2.0836295,-2.0836297 0,-1.1489133 -0.9347162,-2.0836294 -2.0836295,-2.0836294 z m 0,3.7505329 c -0.9190891,0 -1.6669036,-0.7478146 -1.6669036,-1.6669035 0,-0.243368 0.053758,-0.4740257 0.1477293,-0.6825971 0.032088,0.018754 0.064176,0.037922 0.095014,0.057509 0.082511,0.052091 0.164815,0.1041809 0.2679548,0.1433537 0.1029315,0.038964 0.2266988,0.06501 0.3915139,0.06501 0.1650234,0 0.2887911,-0.026046 0.3919307,-0.065218 0.1031402,-0.039173 0.1856514,-0.091055 0.2681632,-0.1431454 0.082511,-0.052091 0.1650233,-0.104181 0.268163,-0.1433537 0.1029315,-0.038964 0.2266988,-0.06501 0.3917224,-0.06501 0.1650233,0 0.2887909,0.026046 0.3917222,0.065218 0.1031388,0.038964 0.1856511,0.091055 0.2681629,0.1431454 0.082511,0.052091 0.1650234,0.1041809 0.2681632,0.1433537 0.037091,0.013961 0.077924,0.025419 0.1210591,0.03563 0.039793,0.1421034 0.062512,0.2912913 0.062512,0.446105 0,0.9190889 -0.7478145,1.6669034 -1.6669034,1.6669033 z"
         id="path134"
         style="stroke-width:0.208363" />
      <circle
         cx="5.3875346"
         cy="6.2093573"
         r="0.31254441"
         id="circle136"
         style="stroke-width:0.208363" />
      <circle
         cx="6.8460755"
         cy="6.2093573"
         r="0.31254441"
         id="circle138"
         style="stroke-width:0.208363" />
    </g>
    <path
       id="rect359"
       style="fill:none;stroke:#000000;stroke-width:0.236966;stroke-linecap:round;stroke-linejoin:round"
       d="M 1.0617445,0.55981682 H 4.1423076 A 0.4739328,0.4739328 0 0 1 4.6162405,1.0337496 v 2.369664 A 0.4739328,0.4739328 0 0 1 4.1423076,3.8773464 H 1.0617445 A 0.47393281,0.47393281 0 0 1 0.58781166,3.4034136 V 1.0337496 A 0.47393281,0.47393281 0 0 1 1.0617445,0.55981682 Z" />
    <path
       id="path1350"
       style="fill:#000000;stroke:none;stroke-width:0.226291px;stroke-linecap:butt;stroke-linejoin:miter;stroke-opacity:1"
       d="M 0.77307943,0.5358846 0.5358846,0.75240885 V 1.1844238 H 4.5645793 V 0.75240885 L 4.3273844,0.5358846 Z M 2.7207642,0.67747803 H 4.1423828 A 0.118483,0.118483 0 0 1 4.2617554,0.79685059 0.118483,0.118483 0 0 1 4.1423828,0.91622314 H 2.7207642 A 0.118483,0.118483 0 0 1 2.6013916,0.79685059 0.118483,0.118483 0 0 1 2.7207642,0.67747803 Z m -1.7022217,0.001034 a 0.11848319,0.11848319 0 0 1 0.0093,0 A 0.11848319,0.11848319 0 0 1 1.1461833,0.79685059 0.11848319,0.11848319 0 0 1 1.0278442,0.91518962 0.11848319,0.11848319 0 0 1 0.90898844,0.79685059 0.11848319,0.11848319 0 0 1 1.0185425,0.67851203 Z m 0.3136759,0 a 0.11848319,0.11848319 0 0 1 0.00879,0 0.11848319,0.11848319 0 0 1 0.118339,0.11833903 A 0.11848319,0.11848319 0 0 1 1.3410034,0.91518962 0.11848319,0.11848319 0 0 1 1.2221476,0.79685059 0.11848319,0.11848319 0 0 1 1.3322184,0.67851203 Z m 0.3131592,0 a 0.11848319,0.11848319 0 0 1 0.00879,0 0.11848319,0.11848319 0 0 1 0.118339,0.11833903 0.11848319,0.11848319 0 0 1 -0.118339,0.11833903 0.11848319,0.11848319 0 0 1 -0.118339,-0.11833903 0.11848319,0.11848319 0 0 1 0.109554,-0.11833903 z" />
    <path
       style="fill:none;stroke:#000000;stroke-width:0.747516;stroke-linecap:round;stroke-linejoin:round;stroke-dasharray:none;stroke-opacity:1;marker-end:url(#TriangleStart)"
       d="m 7.0617313,3.9452201 -1e-7,-2.408987 H 5.8527949"
       id="path1367"
       sodipodi:nodetypes="ccc" />
    <path
       style="fill:none;stroke:#000000;stroke-width:0.747516;stroke-linecap:round;stroke-linejoin:round;stroke-dasharray:none;stroke-opacity:1;marker-end:url(#TriangleStart-7)"
       d="m 1.5885008,4.6681004 2e-7,2.4089871 h 1.2089362"
       id="path1367-3"
       sodipodi:nodetypes="ccc" />
    <path
       style="fill:none;stroke:#000000;stroke-width:0.79375;stroke-linecap:round;stroke-linejoin:miter;stroke-dasharray:none;stroke-opacity:1"
       d="M 0.52916667,0.52916667 7.9375,7.9375"
       id="path4080"
       sodipodi:nodetypes="cc" />
  </g>
</svg>
